<?xml version="1.0" encoding="utf-8"?>
<!-- Generator: Adobe Illustrator 21.0.0, SVG Export Plug-In . SVG Version: 6.00 Build 0)  -->
<svg version="1.1" xmlns="http://www.w3.org/2000/svg" xmlns:xlink="http://www.w3.org/1999/xlink" x="0px" y="0px"
	 viewBox="0 0 53.2 43.8" style="enable-background:new 0 0 53.2 43.8;" xml:space="preserve">
<style type="text/css">
	.st0{display:none;}
	.st1{display:inline;}
	.st2{fill:none;stroke:#FFA879;stroke-miterlimit:10;}
</style>
<g id="Layer_1" class="st0">
</g>
<g id="Layer_2">
	<g>
		<path class="st2" d="M32.8,5.7c0,0-3.8,0.6-9.8,10.2S12.1,29.2,4.6,34.8s0,6.6,2.2,6.6c2.5,0,13.7-0.2,26-7.8s14.6-11.8,14-15.3
			c-0.6-3.5-2.9-5.8-4.8-7.7C40.2,8.8,36.2,4.8,32.8,5.7z"/>
		<line class="st2" x1="8.6" y1="37.2" x2="12.5" y2="37.1"/>
		<path class="st2" d="M14.8,36.8c0,0,7-1,10.4-3"/>
		<path class="st2" d="M40,8.6c0,0,3.3-4.1,6.5-4.6c3.2-0.5,4.2,1.1,4.2,1.1s0,5.1-0.5,4.8s-0.9-0.9-2.4-0.5c-1.5,0.4-4,3.1-4,3.1"
			/>
	</g>
</g>
</svg>
