<?xml version="1.0" encoding="utf-8"?>
<!-- Generator: Adobe Illustrator 21.0.0, SVG Export Plug-In . SVG Version: 6.00 Build 0)  -->
<svg version="1.1" xmlns="http://www.w3.org/2000/svg" xmlns:xlink="http://www.w3.org/1999/xlink" x="0px" y="0px"
	 viewBox="0 0 53.2 43.8" style="enable-background:new 0 0 53.2 43.8;" xml:space="preserve">
<style type="text/css">
	.st0{display:none;}
	.st1{display:inline;}
	.st2{fill:none;stroke:#000000;stroke-miterlimit:10;}
</style>
<g id="Layer_1" class="st0">
	
		<image style="display:inline;overflow:visible;" width="1500" height="1599" xlink:href="../../../../../../../../Downloads/stock-vector-thin-line-flat-design-spices-menu-vector-icon-set-for-application-website-online-store-and-557081887.jpg"  transform="matrix(0.24 0 0 0.24 -1186 124)">
	</image>
	<g id="zfRyrB_1_" class="st1">
		
			<image style="overflow:visible;" width="512" height="512" id="zfRyrB_2_" xlink:href="75ADD04170542BE8.png"  transform="matrix(0.1774 0 0 0.1774 -810.5961 356.9265)">
		</image>
	</g>
	<g id="_x39_R5XAw_1_" class="st1">
		
			<image style="overflow:visible;" width="450" height="470" id="_x39_R5XAw_2_" xlink:href="75ADD04170542BEF.png"  transform="matrix(0.2095 0 0 0.2095 -1287.4103 263.529)">
		</image>
	</g>
</g>
<g id="Layer_2">
	<g id="garlic">
		<path class="st2" d="M-131.3,41.3c-1.9,0.8-7.3-0.8-7.7-6.6c-0.4-5.8,2.7-9.4,4.8-11.6s7.5-4.8,10.3-7.8c2.9-2.9,2.6-7.9,2.6-7.9
			l2.3-1.3l0.5,1.7l1-0.7c0,0,0.2,3.7,1.5,5.9c1.4,2.2,2.4,4.1,7.3,6.8s8.3,6.7,9,10.6s-0.2,9.9-3.5,10.8c-3.3,1-4.8,0-4.8,0"/>
		<path class="st2" d="M-126.6,22.8c0,0-4.2,5-5,8.8c-0.8,3.8-0.7,9.9,3.8,12.9c4.5,3,10.1-1,10.1-1"/>
		<path class="st2" d="M-121.2,19c0,0-1.7,6-0.8,12.3c0.9,6.3,2.1,11.9,5.6,13c4.1,1.3,5.9,0,7.7-1.9c2-2.1,2.7-4.7,1.4-10.6
			c-1.4-6.1-3.7-7.5-7.3-11.5c-3.1-3.4-2.8-4.1-3.1-7.4"/>
	</g>
	<g>
		<g>
			<path class="st2" d="M-176,27.5c0,0.6-0.6,1.8-1.2,2.3c-0.6,0.5-1.3,0.1-1.9-0.7c-0.6-0.8-0.6-2.7-1.3-3.6
				c-0.7-0.9-0.6-0.8-1.8-1.4c-1.2-0.6-12.9-4.4-13.3-4.7s0.6-2,0.6-2s5.2,0.7,9.8,2.1c4.6,1.4,5.3,1.3,6.3,1.1
				c1-0.1,3.1-2.1,3.9-2.3c0.8-0.1,1.6,0,1.9,0.6c0.3,0.6-0.5,2.1-0.5,2.1"/>
			<path class="st2" d="M-176.7,21.3c0,0,0.7-0.9,2-0.5c1.3,0.4,3.1,1.9,3.4,3.2c0.2,1.3-0.5,2.6-1.8,3s-3.2,0.6-4.7-0.3
				c-1.5-0.9,0.3-2.1,0.5-2.7C-177.2,23.3-177.2,22.1-176.7,21.3z"/>
			<path class="st2" d="M-178.2,21.4c0,0-1.4,1.4-1.3,3.4"/>
			<path class="st2" d="M-193.6,19.2c0,0,8.5,2.2,11.3,3.9"/>
		</g>
		<g>
			<path class="st2" d="M-203.6,10c0.4-0.4,1.7-0.9,2.5-0.8c0.8,0.1,0.9,0.8,0.8,1.8c-0.1,1-1.4,2.4-1.6,3.5c-0.2,1.1-0.1,1,0.3,2.3
				s6,12.2,6,12.7s-1.8,1-1.8,1s-3.2-4.2-5.4-8.4c-2.3-4.3-2.8-4.6-3.7-5.2c-0.8-0.6-3.7-0.7-4.4-1.2c-0.7-0.5-1.1-1.1-0.9-1.8
				c0.2-0.7,1.9-1.1,1.9-1.1"/>
			<path class="st2" d="M-207.6,14.8c0,0-1.1,0.1-1.8-1c-0.6-1.1-0.9-3.6-0.1-4.7c0.8-1.1,2.2-1.5,3.4-0.9c1.2,0.7,2.7,1.8,3.1,3.5
				c0.5,1.7-1.7,1.3-2.3,1.6S-206.6,14.6-207.6,14.8z"/>
			<path class="st2" d="M-206.4,15.8c0,0,2,0,3.3-1.4"/>
			<path class="st2" d="M-197.1,28.2c0,0-4.5-7.6-5.2-10.7"/>
		</g>
		<g>
			<path class="st2" d="M-205.5,36.7c-0.4-0.4-0.9-1.7-0.8-2.5c0.1-0.8,0.8-0.9,1.8-0.8c1,0.1,2.4,1.4,3.5,1.6
				c1.1,0.2,1,0.1,2.3-0.3c1.3-0.4,12.2-6,12.7-6c0.5,0,1,1.8,1,1.8s-4.2,3.2-8.4,5.4s-4.6,2.8-5.2,3.7c-0.6,0.8-0.7,3.7-1.2,4.4
				c-0.5,0.7-1.1,1.1-1.8,0.9c-0.7-0.2-1.1-1.9-1.1-1.9"/>
			<path class="st2" d="M-200.7,40.6c0,0,0.1,1.1-1,1.8c-1.1,0.6-3.6,0.9-4.7,0.1c-1.1-0.8-1.5-2.2-0.9-3.4c0.7-1.2,1.8-2.7,3.5-3.1
				s1.3,1.7,1.6,2.3C-201.8,38.8-200.9,39.7-200.7,40.6z"/>
			<path class="st2" d="M-199.7,39.5c0,0,0-2-1.4-3.3"/>
			<path class="st2" d="M-187.3,30.2c0,0-7.6,4.5-10.7,5.2"/>
		</g>
	</g>
	<g>
		<g>
			<path class="st2" d="M-634.8,36l-2,3.9c0.2,2,2.7,2.1,3.3,1.2c0.7-0.9,0.4-2.7,0.4-2.7c1-5.4,18.3-27.5,18.3-27.5s0.2-2.5-1.3-3
				s-3,1.5-3,1.5s-5.4,9.4-8.8,13.4c-3.4,4-10.9,13.7-10.9,13.7c-3.2,5.2,3,8.7,3,8.7s5.8,3.2,8.6-1.1s-1.2-5.9-1.2-5.9
				s-3.5-1.1-2.9,2c0.6,3.1,2.5,2,2.5,2l1.2-3.5"/>
			<path class="st2" d="M-626.4,42c0,0,6.6-14.2,9.5-18.6s7.6-11.4,7.6-11.4s0.6-1.2-0.7-2c-1.3-0.7-3.5,1.6-3.5,1.6l-17.5,26.7"/>
			<path class="st2" d="M-638.9,36.4c0,0,2.5-1.8,4.1-0.4c0,0,1.2,0.7,1.7,2.3"/>
			<line class="st2" x1="-616.4" y1="12.9" x2="-614.7" y2="13.4"/>
		</g>
		<g>
			<path class="st2" d="M-640.6,26.9c0,0,7.5-7.5,10.1-9.6c2.6-2.1,12.7-11.2,12.7-11.2s0.7-3.8-2.3-4c0,0-17.7,12.5-31.4,19.8
				c0,0-5.8,3.5-5,9.2s6.3,5.9,8.1,2.9s-2.2-6.2-5-2.4"/>
			<path class="st2" d="M-641.2,22.1l-3.4,3.1c0,0-2.4-2.1-3.9,0.8s6.1,6.7,7.9,1s-3.1-7.4-9.9-5.6"/>
			<line class="st2" x1="-647.8" y1="25" x2="-642.5" y2="21.2"/>
		</g>
		<line class="st2" x1="-648.5" y1="27.7" x2="-651.5" y2="30.1"/>
		<line class="st2" x1="-645.2" y1="30.1" x2="-648.4" y2="34.1"/>
	</g>
	<g>
		<path class="st2" d="M-272.6,41.5c0,0,3.3-0.2,5.4,0.7c2,0.9,3.9,3.8,3.9,3.8s10.5-4.2,11.5-7c1-2.8-3.4-2.6-4.8-1.7
			c-1.4,1-2.3,1.4-2.3,1.4s5.6-4.7,6.2-6.5c0.7-1.9,1.5-3.1-0.7-4.1c-2.1-1-4.1,3.2-4.7,4.8c0,0-0.6-6.6-0.4-8.2s1.2-5.4,3.2-6.3
			s0.1-3.3-2.3-1.7c0,0,1.8-4.9,1.5-8c-0.3-3.1-4.9-2.6-6-1.8c-2.5,1.8-4.1,5.3-4.1,5.3s-0.1-2.2-1.9-2.2s-1.8,3.9,1,6.5
			c2.7,2.6,3.1,3,3,4.4c-0.1,1.4-0.9-0.3-3.9-0.1c-3,0.2-1.6,3.5-1.1,4.1c0.5,0.6,4.7,2.1,5.2,3.7s-0.6,4.1-1.4,4
			c-0.8-0.1-5.3-4.5-6.3-8s-0.1-6-1.7-8.8s-5.4-2.6-6.4-0.8s0.9,5.9,0.9,5.9s-2.6-1.6-4,0c-1.4,1.6,1.4,7.2,8.2,9.6
			c0,0-8.8-2.8-10-0.1c-1.3,2.7,0.6,4.7,5.6,5.7C-274.2,36.9-272.6,41.5-272.6,41.5z"/>
		<path class="st2" d="M-276.7,17.3c0,0-3.3,0.3-3,1.1"/>
		<path class="st2" d="M-275.5,20.7c0,0,2.6-0.6,3.3,0.1"/>
		<path class="st2" d="M-273,25c0,0-2.7,1.1-3,2"/>
		<path class="st2" d="M-280.9,32.2c0,0,0.2-3.2,1.1-3"/>
		<path class="st2" d="M-277.3,33c0,0-1.3,3-0.9,3.2"/>
		<path class="st2" d="M-269.6,33.7c0,0-3.4,2.8-4,5.9"/>
		<path class="st2" d="M-261.7,12.3c0,0,3.9-0.5,5,1.4"/>
		<path class="st2" d="M-260.2,17.8c0,0-3.9-1-4.4,1.2"/>
		<path class="st2" d="M-262.4,24.5c0,0,3.1-1.2,3.9,1.5"/>
		<path class="st2" d="M-265.5,24.3c0,0-1.7,0.8-1.4,1.8"/>
		<path class="st2" d="M-262.1,33.7c0,0,5.3,1.7,5.5,3.6"/>
		<path class="st2" d="M-263.2,40.6c0,0,2.8,1.5,2.7,4.1"/>
	</g>
	<g>
		<g>
			<path class="st2" d="M-431.1,20.9c0,0,4.1-8,14.7-9c10.6-1,16.1,6.5,16.1,6.5s-9,1.7-15.4,2.4S-431.1,20.9-431.1,20.9z"/>
			<path class="st2" d="M-431.1,20.9c0,0,7.2-6.1,14.5-6.5s16.3,4,16.3,4"/>
			<path class="st2" d="M-429.7,20.9c0,0,8.4-2.6,13.3-3c5.2-0.4,14.4,0.9,14.4,0.9"/>
		</g>
		<g>
			<path class="st2" d="M-433.1,40.1c0,0-0.5-6.9,6.1-11.8c6.6-4.9,13.2-2.2,13.2-2.2s-5.2,4.8-9.2,7.8S-433.1,40.1-433.1,40.1z"/>
			<path class="st2" d="M-433.1,40.1c0,0,2.3-6.9,7-10.1s12.4-3.9,12.4-3.9"/>
			<path class="st2" d="M-432.2,39.6c0,0,4.5-5.1,7.6-7.3c3.3-2.3,9.8-5.2,9.8-5.2"/>
		</g>
		<g>
			<path class="st2" d="M-390.6,17.9c0,0-0.1,7.6-7.8,12.4c-7.7,4.8-14.7,1.1-14.7,1.1s6.2-4.7,10.8-7.7
				C-397.7,20.7-390.6,17.9-390.6,17.9z"/>
			<path class="st2" d="M-390.6,17.9c0,0-3.2,7.3-8.6,10.4c-5.4,3.1-13.9,3.1-13.9,3.1"/>
			<path class="st2" d="M-391.6,18.4c0,0-5.4,5.2-9,7.3c-3.8,2.2-11.3,4.7-11.3,4.7"/>
		</g>
	</g>
	<g>
		<path class="st2" d="M-65.6,45.7c0,0,12.1-23.2,33-30.1"/>
		<path class="st2" d="M-21,10.2c0,0-2,7.1-9.2,10.1S-43.6,21-43.6,21s1.1-5.4,7.8-8.9S-21,10.2-21,10.2z"/>
		<path class="st2" d="M-56.5,5.1c0,0,5.4,3.8,5.6,10.5c0.2,6.7-5.6,12.9-5.6,12.9s-5.1-4.8-5.1-10.9S-56.5,5.1-56.5,5.1z"/>
		<line class="st2" x1="-56.3" y1="14.5" x2="-56.3" y2="32.4"/>
		<path class="st2" d="M-30.8,41.4c0,0-3.3,3.9-12.8,2.8s-12-7.1-12-7.1s3.6-3.5,12.4-2.5C-34.4,35.6-30.8,41.4-30.8,41.4z"/>
		<path class="st2" d="M-40.1,39.4c0,0-13.4-2.1-19.7-2.6"/>
	</g>
	<g>
		<g>
			<line class="st2" x1="-498" y1="27.7" x2="-500" y2="27.5"/>
			<line class="st2" x1="-497.6" y1="29.4" x2="-497.3" y2="31.7"/>
			<line class="st2" x1="-495.2" y1="29" x2="-492.5" y2="28.2"/>
			<line class="st2" x1="-494" y1="30.1" x2="-494" y2="33.3"/>
			<line class="st2" x1="-495.5" y1="27.6" x2="-494.7" y2="26"/>
			<path class="st2" d="M-495,25.8c0,0-3.3-1.6-4.9,1.7s0.7,4.9,2.1,5.5c1.3,0.6,4,1.8,5.5-1.7S-495,25.8-495,25.8z"/>
		</g>
		<g>
			<line class="st2" x1="-502.7" y1="34.7" x2="-501.8" y2="32.9"/>
			<line class="st2" x1="-504.4" y1="34.6" x2="-506.7" y2="34.1"/>
			<line class="st2" x1="-504.8" y1="36.9" x2="-504.9" y2="39.8"/>
			<line class="st2" x1="-506.2" y1="37.7" x2="-509.3" y2="36.8"/>
			<line class="st2" x1="-503.4" y1="37.1" x2="-502.1" y2="38.4"/>
			<path class="st2" d="M-501.8,38.1c0,0,2.5-2.6,0-5.2c-2.6-2.6-4.9-0.8-5.9,0.2c-1,1.1-3,3.2-0.1,5.7S-501.8,38.1-501.8,38.1z"/>
		</g>
		<g>
			<line class="st2" x1="-495.2" y1="19.2" x2="-497.1" y2="19.8"/>
			<line class="st2" x1="-494.1" y1="20.6" x2="-492.8" y2="22.5"/>
			<line class="st2" x1="-492.1" y1="19.2" x2="-490" y2="17.3"/>
			<line class="st2" x1="-490.6" y1="19.7" x2="-489.1" y2="22.5"/>
			<line class="st2" x1="-493" y1="18.1" x2="-493" y2="16.2"/>
			<path class="st2" d="M-493.3,16.2c0,0-3.6,0-3.7,3.6s2.8,4.1,4.3,4.1c1.5,0,4.4-0.1,4.2-3.9S-493.3,16.2-493.3,16.2z"/>
		</g>
		<g>
			<line class="st2" x1="-488.2" y1="37.4" x2="-488.9" y2="39.3"/>
			<line class="st2" x1="-486.4" y1="37.5" x2="-484.1" y2="37.7"/>
			<line class="st2" x1="-486.3" y1="35.1" x2="-486.4" y2="32.2"/>
			<line class="st2" x1="-484.9" y1="34.2" x2="-481.8" y2="34.9"/>
			<line class="st2" x1="-487.7" y1="35" x2="-489.1" y2="33.9"/>
			<path class="st2" d="M-489.3,34.1c0,0-2.3,2.8,0.4,5.2c2.7,2.4,4.9,0.5,5.9-0.7c0.9-1.1,2.7-3.4-0.3-5.7
				C-486.4,30.6-489.3,34.1-489.3,34.1z"/>
		</g>
		<g>
			<line class="st2" x1="-485.8" y1="27.1" x2="-486.5" y2="29.1"/>
			<line class="st2" x1="-483.8" y1="27.2" x2="-481.4" y2="27.5"/>
			<line class="st2" x1="-483.7" y1="24.6" x2="-483.8" y2="21.5"/>
			<line class="st2" x1="-482.2" y1="23.6" x2="-478.8" y2="24.4"/>
			<line class="st2" x1="-485.2" y1="24.5" x2="-486.7" y2="23.3"/>
			<path class="st2" d="M-487,23.5c0,0-2.5,3,0.5,5.6c3,2.6,5.3,0.5,6.4-0.7c1-1.2,2.9-3.7-0.3-6.1C-483.8,19.8-487,23.5-487,23.5z"
				/>
		</g>
		<g>
			<line class="st2" x1="-471" y1="19.9" x2="-473" y2="21.2"/>
			<line class="st2" x1="-469.2" y1="21.3" x2="-467.2" y2="23.3"/>
			<line class="st2" x1="-467.3" y1="19.1" x2="-465.2" y2="16.3"/>
			<line class="st2" x1="-465.3" y1="19.2" x2="-462.7" y2="22.3"/>
			<line class="st2" x1="-468.6" y1="18" x2="-469.1" y2="15.8"/>
			<path class="st2" d="M-469.5,15.8c0,0-4.4,1-3.5,5.4c0.9,4.4,4.5,4.2,6.3,3.8c1.8-0.4,5.3-1.3,4-5.8
				C-464,14.7-469.5,15.8-469.5,15.8z"/>
		</g>
	</g>
	<g>
		<path class="st2" d="M-318.9,9.5c0,0-3.4-1.6-6.3-0.9c-2.9,0.7-3,1.7-5.6,2.5s-6.4-1-12.5,3.9c-6.1,4.9-9.3,9.7-11.1,13.3
			c-1.8,3.6-8,7-8.9,9.9s-0.7,6.5,0.6,6.4c1.3-0.2,1.8-2.6,4.5-3.1s7.4-0.6,9.5-2.5c2.1-1.9,7.4-8.9,11.1-10.2
			c3.7-1.3,20.8-7.5,21.6-11.3C-314.5,10.3-318.9,9.5-318.9,9.5z"/>
		<path class="st2" d="M-327.2,13.2c0,0-1.3-1.3-1.3-3.1"/>
		<path class="st2" d="M-329.4,20.5c0,0,0.7,2.3,2.2,4.1"/>
		<path class="st2" d="M-320.2,17.3c0,0,0.4,1.8,1.5,2.9"/>
		<path class="st2" d="M-333.8,17.8c0,0-2.6-3.7-2-6.4"/>
		<path class="st2" d="M-339.7,16c0,0-1-1.9-0.8-3.1"/>
		<path class="st2" d="M-342.6,23c0,0,1.3,4.2,4,6.1"/>
		<path class="st2" d="M-349,25.6c0,0-1.4-1.2-1.8-3.2"/>
		<path class="st2" d="M-348.1,32.2c0,0,0.9,1.7,2.4,3.4"/>
		<path class="st2" d="M-351.1,32.4c0,0-4-2.9-3.3-4.2"/>
		<path class="st2" d="M-355.8,34.9c0,0-2.1-1.5-1.8-2.9"/>
		<path class="st2" d="M-362,41.4c0,0,0.7,1,2,0.8"/>
		<path class="st2" d="M-350.6,36.9c0,0,0.3,1.3,1.9,1.9"/>
	</g>
	<g>
		<path class="st2" d="M-710.5,39.2c0,0-12.5,4.8-20.1-4.4s-1-19.5-0.2-21.7s-1.5-5.3-1.5-5.3h1.5l-0.2-2.2c0,0,4.6,4.3,5.8,3.8
			c1.2-0.6,8.8-4.3,15.1-0.8c5.3,3,6,5.5,6,5.5"/>
		<path class="st2" d="M-710.9,43.5h-1.7c0,0,2.8-2.5,2.1-4.3c-0.6-1.8-5.3-8.3-1.7-16.1c3.6-7.8,8.2-9,8.2-9s8.3,0.8,14.3,8.8
			c6,8,7.2,12.8,5,16.8c0,0-2.6,2.9-7.4,4.9c-4.8,2-12-1.6-14.1-1.2c-2.1,0.4-4.5,1.8-4.5,1.8L-710.9,43.5z"/>
		<path class="st2" d="M-704,14.1c0,0-8.8,3.2,1.5,16.5c10.3,13.4,17.8,9,17.8,9"/>
		<path class="st2" d="M-711.7,36.7c0,0-4.3-0.8-9.8-7c-7.8-8.8-7.8-16.3-7.8-16.3s-5.2,8.9,2.2,18s16,6.5,16,6.5"/>
		<path class="st2" d="M-727.5,12c0,0,4.7,3.5,9.6,8.5c4.9,5,4.7,5.9,4.7,5.9"/>
		<path class="st2" d="M-708.2,17c0,0-2.7-4-7.8-5.9c-5.5-2-8.8-0.9-8.8-0.9s4.3,0.6,10,5.2s4.6,4.2,4.6,4.2"/>
		<path class="st2" d="M-707.5,21.5c0,0-4.8,4.2-3.7,11.7"/>
		<path class="st2" d="M-701.9,31.4c0,0-4,4.6-5.1,6.5"/>
		<path class="st2" d="M-695.5,37.6c-0.1,1.6-3.8,4.5-7.7,3.9"/>
		<path class="st2" d="M-697.8,42.5c0,0,4.3,0.2,7.1-2.6"/>
		<path class="st2" d="M-709.1,34.6c0,0,1.6-4.7,4.1-6.7"/>
		<path class="st2" d="M-704,39.4c0,0,3.9-2.4,4.9-4.9"/>
		<path class="st2" d="M-702.9,16.4c0,0-6,0.2,4.1,13.6c10.1,13.4,15.6,7.9,11.8,1.7S-695.9,16.7-702.9,16.4z"/>
		<path class="st2" d="M-701.3,20.8c0,0-2,0.2,3.6,7.2c5.6,7,9.4,8.1,8.6,5.7C-689.9,31.3-699,18.5-701.3,20.8z"/>
		<path class="st2" d="M-695.4,27.5c0,0-2-2.2-1-0.7c1,1.4,2.6,3,1.9,1.9C-695.2,27.7-695.4,27.5-695.4,27.5z"/>
	</g>
	<g>
		<g>
			<path class="st2" d="M-552.5,28.3c0,0-9.4,3.7-8.3,11.6s11.5,6.7,16.6,3.5c5.1-3.1,8.5-8.2,4.6-13.1
				C-543.4,25.4-550.5,27.2-552.5,28.3z"/>
			<path class="st2" d="M-546.8,29.1c0,0-3.6-0.3-5.8,2.2c-2.2,2.4-2.2,4.1-2.2,4.1"/>
			<path class="st2" d="M-554.8,31.4c0,0-1-0.7-1.4,0.8c-0.4,1.5-1.6,1.4-1.9,3.1c-0.3,1.8,0,5,0,5"/>
			<path class="st2" d="M-557.3,42.1c0,0-2.8,0.7-3.2-0.8"/>
			<path class="st2" d="M-556.5,40.4c0,0,2.2-2,2.5-2.9s0.7-2.7,1.8-3c1.1-0.3,2.5-1.5,2.5-1.5"/>
			<path class="st2" d="M-551.3,38.3c0,0,2.5-2.3,3.5-3.5s0.9-2.8,1.9-3.6"/>
			<path class="st2" d="M-545,29.1"/>
			<line class="st2" x1="-541.4" y1="28.6" x2="-545" y2="29.1"/>
			<path class="st2" d="M-546.8,36.4c0,0,2.8-1.6,3.5-3.4c0.6-1.7,3.6-0.8,3.6-0.8s0.6,1.8-3,3.6"/>
			<path class="st2" d="M-541.4,37.6c0,0,0,1-1.8,1.8s-3.7-0.8-4.6,0s-2.3,2.2-4.3,1.9"/>
			<path class="st2" d="M-555.4,41.4c0,0,1.1,1.6,2.2,1.6c1.2,0,1.1,1.5,1.8,1.5s2.4-0.8,2.4-0.8"/>
			<path class="st2" d="M-555.4,42.9c0,0,0.1,2.8,1.5,2.8"/>
			<path class="st2" d="M-547.8,42.3c0,0,3.3-0.7,3.9-1"/>
		</g>
		<g>
			<path class="st2" d="M-563.3,8.4c0,0-9.3-3.9-14,2.6c-4.7,6.4,3.6,12.8,9.5,14.1c5.9,1.3,11.8,0,12.4-6.2
				C-554.8,12.7-561.1,9.1-563.3,8.4z"/>
			<path class="st2" d="M-559.8,13c0,0-2.4-2.7-5.7-2.5s-4.4,1.4-4.4,1.4"/>
			<path class="st2" d="M-567.2,9.1c0,0-0.2-1.2-1.5-0.4s-2.1-0.1-3.5,0.9c-1.4,1.1-3.5,3.6-3.5,3.6"/>
			<path class="st2" d="M-576.4,15.1c0,0-2.5-1.4-1.7-2.8"/>
			<path class="st2" d="M-574.6,14.4c0,0,3,0.1,3.8-0.3c0.8-0.4,2.4-1.5,3.3-0.9c1,0.6,2.8,0.7,2.8,0.7"/>
			<path class="st2" d="M-569.5,16.5c0,0,3.4,0.1,5-0.1c1.6-0.2,2.6-1.3,3.8-1.2"/>
			<path class="st2" d="M-558.5,14.2"/>
			<line class="st2" x1="-555.5" y1="16.4" x2="-558.5" y2="14.2"/>
			<path class="st2" d="M-564.8,18.3c0,0,3.1,0.8,4.9,0c1.6-0.8,3.2,1.9,3.2,1.9s-0.8,1.8-4.6,0.5"/>
			<path class="st2" d="M-561.8,22.9c0,0-0.7,0.7-2.5,0c-1.9-0.7-2.1-3.1-3.3-3.2c-1.2,0-3.2,0-4.4-1.6"/>
			<path class="st2" d="M-574.5,15.9c0,0-0.3,1.9,0.5,2.7s-0.3,1.8,0.3,2.3c0.5,0.5,2.3,1.1,2.3,1.1"/>
			<path class="st2" d="M-575.6,17c0,0-1.9,2.1-0.9,3"/>
			<path class="st2" d="M-569.7,21.8c0,0,2.8,1.8,3.5,2"/>
		</g>
	</g>
	<g>
		<path class="st2" d="M32.8,5.7c0,0-3.8,0.6-9.8,10.2S12.1,29.2,4.6,34.8s0,6.6,2.2,6.6c2.5,0,13.7-0.2,26-7.8s14.6-11.8,14-15.3
			c-0.6-3.5-2.9-5.8-4.8-7.7C40.2,8.8,36.2,4.8,32.8,5.7z"/>
		<line class="st2" x1="8.6" y1="37.2" x2="12.5" y2="37.1"/>
		<path class="st2" d="M14.8,36.8c0,0,7-1,10.4-3"/>
		<path class="st2" d="M40,8.6c0,0,3.3-4.1,6.5-4.6c3.2-0.5,4.2,1.1,4.2,1.1s0,5.1-0.5,4.8s-0.9-0.9-2.4-0.5c-1.5,0.4-4,3.1-4,3.1"
			/>
	</g>
</g>
</svg>
