<?xml version="1.0" encoding="utf-8"?>
<!-- Generator: Adobe Illustrator 21.0.0, SVG Export Plug-In . SVG Version: 6.00 Build 0)  -->
<svg version="1.1" xmlns="http://www.w3.org/2000/svg" xmlns:xlink="http://www.w3.org/1999/xlink" x="0px" y="0px"
	 viewBox="0 0 53.2 43.8" style="enable-background:new 0 0 53.2 43.8;" xml:space="preserve">
<style type="text/css">
	.st0{display:none;}
	.st1{display:inline;}
	.st2{fill:none;stroke:#000000;stroke-miterlimit:10;}
</style>
<g id="Layer_1" class="st0">
</g>
<g id="Layer_2">
	<g>
		<g>
			<path class="st2" d="M8.4,16.9c0,0,4.1-8,14.7-9s16.1,6.5,16.1,6.5s-9,1.7-15.4,2.4S8.4,16.9,8.4,16.9z"/>
			<path class="st2" d="M8.4,16.9c0,0,7.2-6.1,14.5-6.5s16.3,4,16.3,4"/>
			<path class="st2" d="M9.8,16.9c0,0,8.4-2.6,13.3-3c5.2-0.4,14.4,0.9,14.4,0.9"/>
		</g>
		<g>
			<path class="st2" d="M6.4,36.1c0,0-0.5-6.9,6.1-11.8s13.2-2.2,13.2-2.2s-5.2,4.8-9.2,7.8S6.4,36.1,6.4,36.1z"/>
			<path class="st2" d="M6.4,36.1c0,0,2.3-6.9,7-10.1s12.4-3.9,12.4-3.9"/>
			<path class="st2" d="M7.3,35.6c0,0,4.5-5.1,7.6-7.3c3.3-2.3,9.8-5.2,9.8-5.2"/>
		</g>
		<g>
			<path class="st2" d="M48.9,13.9c0,0-0.1,7.6-7.8,12.4s-14.7,1.1-14.7,1.1s6.2-4.7,10.8-7.7S48.9,13.9,48.9,13.9z"/>
			<path class="st2" d="M48.9,13.9c0,0-3.2,7.3-8.6,10.4s-13.9,3.1-13.9,3.1"/>
			<path class="st2" d="M47.9,14.4c0,0-5.4,5.2-9,7.3c-3.8,2.2-11.3,4.7-11.3,4.7"/>
		</g>
	</g>
</g>
</svg>
