<?xml version="1.0" encoding="utf-8"?>
<!-- Generator: Adobe Illustrator 21.0.0, SVG Export Plug-In . SVG Version: 6.00 Build 0)  -->
<svg version="1.1" xmlns="http://www.w3.org/2000/svg" xmlns:xlink="http://www.w3.org/1999/xlink" x="0px" y="0px"
	 viewBox="0 0 53.2 43.8" style="enable-background:new 0 0 53.2 43.8;" xml:space="preserve">
<style type="text/css">
	.st0{display:none;}
	.st1{display:inline;}
	.st2{fill:none;stroke:#000000;stroke-miterlimit:10;}
</style>
<g id="Layer_1" class="st0">
</g>
<g id="Layer_2">
	<g id="garlic">
		<path class="st2" d="M15.2,37.3c-1.9,0.8-7.3-0.8-7.7-6.6s2.7-9.4,4.8-11.6s7.5-4.8,10.3-7.8s2.6-7.9,2.6-7.9l2.3-1.3l0.5,1.7
			l1-0.7c0,0,0.2,3.7,1.5,5.9s2.4,4.1,7.3,6.8s8.3,6.7,9,10.6c0.6,3.9-0.2,9.9-3.5,10.8c-3.3,1-4.8,0-4.8,0"/>
		<path class="st2" d="M19.9,18.8c0,0-4.2,5-5,8.8c-0.8,3.8-0.7,9.9,3.8,12.9s10.1-1,10.1-1"/>
		<path class="st2" d="M25.3,15c0,0-1.7,6-0.8,12.3c0.9,6.3,2.1,11.9,5.6,13c4.1,1.3,5.9,0,7.7-1.9c2-2.1,2.7-4.7,1.4-10.6
			c-1.4-6.1-3.7-7.5-7.3-11.5c-3.1-3.4-2.8-4.1-3.1-7.4"/>
	</g>
</g>
</svg>
