<?xml version="1.0" encoding="utf-8"?>
<!-- Generator: Adobe Illustrator 21.0.0, SVG Export Plug-In . SVG Version: 6.00 Build 0)  -->
<svg version="1.1" xmlns="http://www.w3.org/2000/svg" xmlns:xlink="http://www.w3.org/1999/xlink" x="0px" y="0px"
	 viewBox="0 0 53.2 43.8" style="enable-background:new 0 0 53.2 43.8;" xml:space="preserve">
<style type="text/css">
	.st0{display:none;}
	.st1{display:inline;}
	.st2{fill:none;stroke:#000000;stroke-miterlimit:10;}
</style>
<g id="Layer_1" class="st0">
</g>
<g id="Layer_2">
	<g>
		<g>
			<path class="st2" d="M33.5,24.3c0,0-9.4,3.7-8.3,11.6c1.1,7.9,11.5,6.7,16.6,3.5s8.5-8.2,4.6-13.1S35.5,23.2,33.5,24.3z"/>
			<path class="st2" d="M39.2,25.1c0,0-3.6-0.3-5.8,2.2c-2.2,2.4-2.2,4.1-2.2,4.1"/>
			<path class="st2" d="M31.2,27.4c0,0-1-0.7-1.4,0.8s-1.6,1.4-1.9,3.1c-0.3,1.8,0,5,0,5"/>
			<path class="st2" d="M28.7,38.1c0,0-2.8,0.7-3.2-0.8"/>
			<path class="st2" d="M29.5,36.4c0,0,2.2-2,2.5-2.9s0.7-2.7,1.8-3s2.5-1.5,2.5-1.5"/>
			<path class="st2" d="M34.7,34.3c0,0,2.5-2.3,3.5-3.5s0.9-2.8,1.9-3.6"/>
			<line class="st2" x1="44.6" y1="24.6" x2="41" y2="25.1"/>
			<path class="st2" d="M39.2,32.4c0,0,2.8-1.6,3.5-3.4c0.6-1.7,3.6-0.8,3.6-0.8s0.6,1.8-3,3.6"/>
			<path class="st2" d="M44.6,33.6c0,0,0,1-1.8,1.8c-1.8,0.8-3.7-0.8-4.6,0c-0.9,0.8-2.3,2.2-4.3,1.9"/>
			<path class="st2" d="M30.6,37.4c0,0,1.1,1.6,2.2,1.6c1.2,0,1.1,1.5,1.8,1.5s2.4-0.8,2.4-0.8"/>
			<path class="st2" d="M30.6,38.9c0,0,0.1,2.8,1.5,2.8"/>
			<path class="st2" d="M38.2,38.3c0,0,3.3-0.7,3.9-1"/>
		</g>
		<g>
			<path class="st2" d="M22.7,4.4c0,0-9.3-3.9-14,2.6s3.6,12.8,9.5,14.1s11.8,0,12.4-6.2C31.2,8.7,24.9,5.1,22.7,4.4z"/>
			<path class="st2" d="M26.2,9c0,0-2.4-2.7-5.7-2.5c-3.3,0.3-4.4,1.4-4.4,1.4"/>
			<path class="st2" d="M18.8,5.1c0,0-0.2-1.2-1.5-0.4s-2.1-0.1-3.5,0.9s-3.5,3.6-3.5,3.6"/>
			<path class="st2" d="M9.6,11.1c0,0-2.5-1.4-1.7-2.8"/>
			<path class="st2" d="M11.4,10.4c0,0,3,0.1,3.8-0.3s2.4-1.5,3.3-0.9c1,0.6,2.8,0.7,2.8,0.7"/>
			<path class="st2" d="M16.5,12.5c0,0,3.4,0.1,5-0.1s2.6-1.3,3.8-1.2"/>
			<line class="st2" x1="30.5" y1="12.4" x2="27.5" y2="10.2"/>
			<path class="st2" d="M21.2,14.3c0,0,3.1,0.8,4.9,0c1.6-0.8,3.2,1.9,3.2,1.9s-0.8,1.8-4.6,0.5"/>
			<path class="st2" d="M24.2,18.9c0,0-0.7,0.7-2.5,0c-1.9-0.7-2.1-3.1-3.3-3.2s-3.2,0-4.4-1.6"/>
			<path class="st2" d="M11.5,11.9c0,0-0.3,1.9,0.5,2.7s-0.3,1.8,0.3,2.3c0.5,0.5,2.3,1.1,2.3,1.1"/>
			<path class="st2" d="M10.4,13c0,0-1.9,2.1-0.9,3"/>
			<path class="st2" d="M16.3,17.8c0,0,2.8,1.8,3.5,2"/>
		</g>
	</g>
</g>
</svg>
