<?xml version="1.0" encoding="utf-8"?>
<!-- Generator: Adobe Illustrator 21.0.0, SVG Export Plug-In . SVG Version: 6.00 Build 0)  -->
<svg version="1.1" xmlns="http://www.w3.org/2000/svg" xmlns:xlink="http://www.w3.org/1999/xlink" x="0px" y="0px"
	 viewBox="0 0 53.2 43.8" style="enable-background:new 0 0 53.2 43.8;" xml:space="preserve">
<style type="text/css">
	.st0{display:none;}
	.st1{display:inline;}
	.st2{fill:none;stroke:#000000;stroke-miterlimit:10;}
</style>
<g id="Layer_1" class="st0">
</g>
<g id="Layer_2">
	<g>
		<path class="st2" d="M24.8,35.2c0,0-12.5,4.8-20.1-4.4s-1-19.5-0.2-21.7S3,3.9,3,3.9h1.5L4.3,1.6c0,0,4.6,4.3,5.8,3.8
			S18.9,1,25.2,4.6c5.3,3,6,5.5,6,5.5"/>
		<path class="st2" d="M24.3,39.5h-1.7c0,0,2.8-2.5,2.1-4.3c-0.6-1.8-5.3-8.3-1.7-16.1s8.2-9,8.2-9s8.3,0.8,14.3,8.8
			s7.2,12.8,5,16.8c0,0-2.6,2.9-7.4,4.9S31.1,39,29,39.4s-4.5,1.8-4.5,1.8L24.3,39.5z"/>
		<path class="st2" d="M31.2,10.1c0,0-8.8,3.2,1.5,16.5s17.8,9,17.8,9"/>
		<path class="st2" d="M23.5,32.7c0,0-4.3-0.8-9.8-7C5.9,16.9,5.9,9.4,5.9,9.4s-5.2,8.9,2.2,18s16,6.5,16,6.5"/>
		<path class="st2" d="M7.7,8c0,0,4.7,3.5,9.6,8.5s4.7,5.9,4.7,5.9"/>
		<path class="st2" d="M27.1,13c0,0-2.7-4-7.8-5.9c-5.5-2-8.8-0.9-8.8-0.9s4.3,0.6,10,5.2s4.6,4.2,4.6,4.2"/>
		<path class="st2" d="M27.7,17.5c0,0-4.8,4.2-3.7,11.7"/>
		<path class="st2" d="M33.3,27.4c0,0-4,4.6-5.1,6.5"/>
		<path class="st2" d="M39.7,33.6c-0.1,1.6-3.8,4.5-7.7,3.9"/>
		<path class="st2" d="M37.4,38.5c0,0,4.3,0.2,7.1-2.6"/>
		<path class="st2" d="M26.1,30.6c0,0,1.6-4.7,4.1-6.7"/>
		<path class="st2" d="M31.2,35.4c0,0,3.9-2.4,4.9-4.9"/>
		<path class="st2" d="M32.3,12.4c0,0-6,0.2,4.1,13.6s15.6,7.9,11.8,1.7S39.3,12.7,32.3,12.4z"/>
		<path class="st2" d="M34,16.8c0,0-2,0.2,3.6,7.2s9.4,8.1,8.6,5.7C45.4,27.3,36.3,14.5,34,16.8z"/>
		<path class="st2" d="M39.8,23.5c0,0-2-2.2-1-0.7c1,1.4,2.6,3,1.9,1.9C40,23.7,39.8,23.5,39.8,23.5z"/>
	</g>
</g>
</svg>
