<?xml version="1.0" encoding="utf-8"?>
<!-- Generator: Adobe Illustrator 21.0.0, SVG Export Plug-In . SVG Version: 6.00 Build 0)  -->
<svg version="1.1" xmlns="http://www.w3.org/2000/svg" xmlns:xlink="http://www.w3.org/1999/xlink" x="0px" y="0px"
	 viewBox="0 0 53.2 43.8" style="enable-background:new 0 0 53.2 43.8;" xml:space="preserve">
<style type="text/css">
	.st0{display:none;}
	.st1{display:inline;}
	.st2{fill:none;stroke:#000000;stroke-miterlimit:10;}
</style>
<g id="Layer_1" class="st0">
	
		<image style="display:inline;overflow:visible;" width="1500" height="1599" xlink:href="../../../../../../../../Downloads/stock-vector-thin-line-flat-design-spices-menu-vector-icon-set-for-application-website-online-store-and-557081887.jpg"  transform="matrix(0.24 0 0 0.24 -673.25 120)">
	</image>
	<g id="zfRyrB_1_" class="st1">
		
			<image style="overflow:visible;" width="512" height="512" id="zfRyrB_2_" xlink:href="6AA4AB2E9DF56BE3.png"  transform="matrix(0.1774 0 0 0.1774 -297.8461 352.9265)">
		</image>
	</g>
	<g id="_x39_R5XAw_1_" class="st1">
		
			<image style="overflow:visible;" width="450" height="470" id="_x39_R5XAw_2_" xlink:href="6AA4AB2E9DF56BE1.png"  transform="matrix(0.2095 0 0 0.2095 -774.6603 259.529)">
		</image>
	</g>
</g>
<g id="Layer_2">
	<g id="garlic">
		<path class="st2" d="M381.5,37.3c-1.9,0.8-7.3-0.8-7.7-6.6c-0.4-5.8,2.7-9.4,4.8-11.6c2.1-2.2,7.5-4.8,10.3-7.8s2.6-7.9,2.6-7.9
			l2.3-1.3l0.5,1.7l1-0.7c0,0,0.2,3.7,1.5,5.9c1.4,2.2,2.4,4.1,7.3,6.8s8.3,6.7,9,10.6s-0.2,9.9-3.5,10.8c-3.3,1-4.8,0-4.8,0"/>
		<path class="st2" d="M386.1,18.8c0,0-4.2,5-5,8.8s-0.7,9.9,3.8,12.9c4.5,3,10.1-1,10.1-1"/>
		<path class="st2" d="M391.6,15c0,0-1.7,6-0.8,12.3c0.9,6.3,2.1,11.9,5.6,13c4.1,1.3,5.9,0,7.7-1.9c2-2.1,2.7-4.7,1.4-10.6
			c-1.4-6.1-3.7-7.5-7.3-11.5c-3.1-3.4-2.8-4.1-3.1-7.4"/>
	</g>
	<g>
		<g>
			<path class="st2" d="M336.7,23.5c0,0.6-0.6,1.8-1.2,2.3c-0.6,0.5-1.3,0.1-1.9-0.7c-0.6-0.8-0.6-2.7-1.3-3.6s-0.6-0.8-1.8-1.4
				c-1.2-0.6-12.9-4.4-13.3-4.7c-0.4-0.4,0.6-2,0.6-2s5.2,0.7,9.8,2.1c4.6,1.4,5.3,1.3,6.3,1.1c1-0.1,3.1-2.1,3.9-2.3
				c0.8-0.1,1.6,0,1.9,0.6c0.3,0.6-0.5,2.1-0.5,2.1"/>
			<path class="st2" d="M336.1,17.3c0,0,0.7-0.9,2-0.5c1.3,0.4,3.1,1.9,3.4,3.2c0.2,1.3-0.5,2.6-1.8,3s-3.2,0.6-4.7-0.3
				c-1.5-0.9,0.3-2.1,0.5-2.7C335.6,19.3,335.5,18.1,336.1,17.3z"/>
			<path class="st2" d="M334.5,17.4c0,0-1.4,1.4-1.3,3.4"/>
			<path class="st2" d="M319.2,15.2c0,0,8.5,2.2,11.3,3.9"/>
		</g>
		<g>
			<path class="st2" d="M309.2,6c0.4-0.4,1.7-0.9,2.5-0.8c0.8,0.1,0.9,0.8,0.8,1.8s-1.4,2.4-1.6,3.5s-0.1,1,0.3,2.3
				c0.4,1.3,6,12.2,6,12.7s-1.8,1-1.8,1s-3.2-4.2-5.4-8.4s-2.8-4.6-3.7-5.2c-0.8-0.6-3.7-0.7-4.4-1.2c-0.7-0.5-1.1-1.1-0.9-1.8
				s1.9-1.1,1.9-1.1"/>
			<path class="st2" d="M305.2,10.8c0,0-1.1,0.1-1.8-1c-0.6-1.1-0.9-3.6-0.1-4.7c0.8-1.1,2.2-1.5,3.4-0.9s2.7,1.8,3.1,3.5
				s-1.7,1.3-2.3,1.6C307,9.7,306.2,10.6,305.2,10.8z"/>
			<path class="st2" d="M306.4,11.8c0,0,2,0,3.3-1.4"/>
			<path class="st2" d="M315.6,24.2c0,0-4.5-7.6-5.2-10.7"/>
		</g>
		<g>
			<path class="st2" d="M307.2,32.7c-0.4-0.4-0.9-1.7-0.8-2.5s0.8-0.9,1.8-0.8c1,0.1,2.4,1.4,3.5,1.6c1.1,0.2,1,0.1,2.3-0.3
				c1.3-0.4,12.2-6,12.7-6c0.5,0,1,1.8,1,1.8s-4.2,3.2-8.4,5.4c-4.3,2.3-4.6,2.8-5.2,3.7c-0.6,0.8-0.7,3.7-1.2,4.4
				c-0.5,0.7-1.1,1.1-1.8,0.9c-0.7-0.2-1.1-1.9-1.1-1.9"/>
			<path class="st2" d="M312.1,36.6c0,0,0.1,1.1-1,1.8c-1.1,0.6-3.6,0.9-4.7,0.1c-1.1-0.8-1.5-2.2-0.9-3.4c0.7-1.2,1.8-2.7,3.5-3.1
				s1.3,1.7,1.6,2.3C310.9,34.8,311.8,35.7,312.1,36.6z"/>
			<path class="st2" d="M313.1,35.5c0,0,0-2-1.4-3.3"/>
			<path class="st2" d="M325.5,26.2c0,0-7.6,4.5-10.7,5.2"/>
		</g>
	</g>
	<g>
		<g>
			<path class="st2" d="M-122,32l-2,3.9c0.2,2,2.7,2.1,3.3,1.2c0.7-0.9,0.4-2.7,0.4-2.7c1-5.4,18.3-27.5,18.3-27.5s0.2-2.5-1.3-3
				s-3,1.5-3,1.5s-5.4,9.4-8.8,13.4s-10.9,13.7-10.9,13.7c-3.2,5.2,3,8.7,3,8.7s5.8,3.2,8.6-1.1s-1.2-5.9-1.2-5.9s-3.5-1.1-2.9,2
				c0.6,3.1,2.5,2,2.5,2l1.2-3.5"/>
			<path class="st2" d="M-113.6,38c0,0,6.6-14.2,9.5-18.6c2.9-4.3,7.6-11.4,7.6-11.4s0.6-1.2-0.7-2c-1.3-0.7-3.5,1.6-3.5,1.6
				l-17.5,26.7"/>
			<path class="st2" d="M-126.1,32.4c0,0,2.5-1.8,4.1-0.4c0,0,1.2,0.7,1.7,2.3"/>
			<line class="st2" x1="-103.7" y1="8.9" x2="-102" y2="9.4"/>
		</g>
		<g>
			<path class="st2" d="M-127.8,22.9c0,0,7.5-7.5,10.1-9.6c2.6-2.1,12.7-11.2,12.7-11.2s0.7-3.8-2.3-4c0,0-17.7,12.5-31.4,19.8
				c0,0-5.8,3.5-5,9.2s6.3,5.9,8.1,2.9c1.8-2.9-2.2-6.2-5-2.4"/>
			<path class="st2" d="M-128.4,18.1l-3.4,3.1c0,0-2.4-2.1-3.9,0.8s6.1,6.7,7.9,1c1.8-5.7-3.1-7.4-9.9-5.6"/>
			<line class="st2" x1="-135.1" y1="21" x2="-129.7" y2="17.2"/>
		</g>
		<line class="st2" x1="-135.7" y1="23.7" x2="-138.8" y2="26.1"/>
		<line class="st2" x1="-132.4" y1="26.1" x2="-135.7" y2="30.1"/>
	</g>
	<g>
		<path class="st2" d="M240.1,37.5c0,0,3.3-0.2,5.4,0.7s3.9,3.8,3.9,3.8s10.5-4.2,11.5-7c1-2.8-3.4-2.6-4.8-1.7
			c-1.4,1-2.3,1.4-2.3,1.4s5.6-4.7,6.2-6.5c0.7-1.9,1.5-3.1-0.7-4.1c-2.1-1-4.1,3.2-4.7,4.8c0,0-0.6-6.6-0.4-8.2s1.2-5.4,3.2-6.3
			s0.1-3.3-2.3-1.7c0,0,1.8-4.9,1.5-8c-0.3-3.1-4.9-2.6-6-1.8c-2.5,1.8-4.1,5.3-4.1,5.3s-0.1-2.2-1.9-2.2c-1.8,0-1.8,3.9,1,6.5
			c2.7,2.6,3.1,3,3,4.4c-0.1,1.4-0.9-0.3-3.9-0.1c-3,0.2-1.6,3.5-1.1,4.1c0.5,0.6,4.7,2.1,5.2,3.7c0.5,1.6-0.6,4.1-1.4,4
			s-5.3-4.5-6.3-8s-0.1-6-1.7-8.8s-5.4-2.6-6.4-0.8s0.9,5.9,0.9,5.9s-2.6-1.6-4,0c-1.4,1.6,1.4,7.2,8.2,9.6c0,0-8.8-2.8-10-0.1
			c-1.3,2.7,0.6,4.7,5.6,5.7C238.6,32.9,240.1,37.5,240.1,37.5z"/>
		<path class="st2" d="M236,13.3c0,0-3.3,0.3-3,1.1"/>
		<path class="st2" d="M237.2,16.7c0,0,2.6-0.6,3.3,0.1"/>
		<path class="st2" d="M239.7,21c0,0-2.7,1.1-3,2"/>
		<path class="st2" d="M231.8,28.2c0,0,0.2-3.2,1.1-3"/>
		<path class="st2" d="M235.4,29c0,0-1.3,3-0.9,3.2"/>
		<path class="st2" d="M243.2,29.7c0,0-3.4,2.8-4,5.9"/>
		<path class="st2" d="M251.1,8.3c0,0,3.9-0.5,5,1.4"/>
		<path class="st2" d="M252.5,13.8c0,0-3.9-1-4.4,1.2"/>
		<path class="st2" d="M250.3,20.5c0,0,3.1-1.2,3.9,1.5"/>
		<path class="st2" d="M247.3,20.3c0,0-1.7,0.8-1.4,1.8"/>
		<path class="st2" d="M250.7,29.7c0,0,5.3,1.7,5.5,3.6"/>
		<path class="st2" d="M249.6,36.6c0,0,2.8,1.5,2.7,4.1"/>
	</g>
	<g>
		<g>
			<path class="st2" d="M81.7,16.9c0,0,4.1-8,14.7-9s16.1,6.5,16.1,6.5s-9,1.7-15.4,2.4C90.6,17.6,81.7,16.9,81.7,16.9z"/>
			<path class="st2" d="M81.7,16.9c0,0,7.2-6.1,14.5-6.5s16.3,4,16.3,4"/>
			<path class="st2" d="M83,16.9c0,0,8.4-2.6,13.3-3c5.2-0.4,14.4,0.9,14.4,0.9"/>
		</g>
		<g>
			<path class="st2" d="M79.6,36.1c0,0-0.5-6.9,6.1-11.8s13.2-2.2,13.2-2.2s-5.2,4.8-9.2,7.8S79.6,36.1,79.6,36.1z"/>
			<path class="st2" d="M79.6,36.1c0,0,2.3-6.9,7-10.1c4.7-3.2,12.4-3.9,12.4-3.9"/>
			<path class="st2" d="M80.5,35.6c0,0,4.5-5.1,7.6-7.3c3.3-2.3,9.8-5.2,9.8-5.2"/>
		</g>
		<g>
			<path class="st2" d="M122.1,13.9c0,0-0.1,7.6-7.8,12.4s-14.7,1.1-14.7,1.1s6.2-4.7,10.8-7.7C115.1,16.7,122.1,13.9,122.1,13.9z"
				/>
			<path class="st2" d="M122.1,13.9c0,0-3.2,7.3-8.6,10.4c-5.4,3.1-13.9,3.1-13.9,3.1"/>
			<path class="st2" d="M121.1,14.4c0,0-5.4,5.2-9,7.3c-3.8,2.2-11.3,4.7-11.3,4.7"/>
		</g>
	</g>
	<g>
		<path class="st2" d="M447.1,41.7c0,0,12.1-23.2,33-30.1"/>
		<path class="st2" d="M491.8,6.2c0,0-2,7.1-9.2,10.1S469.2,17,469.2,17s1.1-5.4,7.8-8.9C483.6,4.6,491.8,6.2,491.8,6.2z"/>
		<path class="st2" d="M456.2,1.1c0,0,5.4,3.8,5.6,10.5c0.2,6.7-5.6,12.9-5.6,12.9s-5.1-4.8-5.1-10.9S456.2,1.1,456.2,1.1z"/>
		<line class="st2" x1="456.5" y1="10.5" x2="456.5" y2="28.4"/>
		<path class="st2" d="M482,37.4c0,0-3.3,3.9-12.8,2.8s-12-7.1-12-7.1s3.6-3.5,12.4-2.5S482,37.4,482,37.4z"/>
		<path class="st2" d="M472.6,35.4c0,0-13.4-2.1-19.7-2.6"/>
	</g>
	<g>
		<g>
			<line class="st2" x1="14.8" y1="23.7" x2="12.8" y2="23.5"/>
			<line class="st2" x1="15.2" y1="25.4" x2="15.4" y2="27.7"/>
			<line class="st2" x1="17.5" y1="25" x2="20.2" y2="24.2"/>
			<line class="st2" x1="18.7" y1="26.1" x2="18.8" y2="29.3"/>
			<line class="st2" x1="17.2" y1="23.6" x2="18" y2="22"/>
			<path class="st2" d="M17.7,21.8c0,0-3.3-1.6-4.9,1.7s0.7,4.9,2.1,5.5c1.3,0.6,4,1.8,5.5-1.7C21.8,23.9,17.7,21.8,17.7,21.8z"/>
		</g>
		<g>
			<line class="st2" x1="10.1" y1="30.7" x2="10.9" y2="28.9"/>
			<line class="st2" x1="8.3" y1="30.6" x2="6" y2="30.1"/>
			<line class="st2" x1="8" y1="32.9" x2="7.8" y2="35.8"/>
			<line class="st2" x1="6.5" y1="33.7" x2="3.5" y2="32.8"/>
			<line class="st2" x1="9.4" y1="33.1" x2="10.7" y2="34.4"/>
			<path class="st2" d="M10.9,34.1c0,0,2.5-2.6,0-5.2S6,28.1,5,29.2c-1,1.1-3,3.2-0.1,5.7S10.9,34.1,10.9,34.1z"/>
		</g>
		<g>
			<line class="st2" x1="17.6" y1="15.2" x2="15.7" y2="15.8"/>
			<line class="st2" x1="18.7" y1="16.6" x2="19.9" y2="18.5"/>
			<line class="st2" x1="20.6" y1="15.2" x2="22.8" y2="13.3"/>
			<line class="st2" x1="22.2" y1="15.7" x2="23.6" y2="18.5"/>
			<line class="st2" x1="19.8" y1="14.1" x2="19.8" y2="12.2"/>
			<path class="st2" d="M19.4,12.2c0,0-3.6,0-3.7,3.6s2.8,4.1,4.3,4.1c1.5,0,4.4-0.1,4.2-3.9S19.4,12.2,19.4,12.2z"/>
		</g>
		<g>
			<line class="st2" x1="24.5" y1="33.4" x2="23.8" y2="35.3"/>
			<line class="st2" x1="26.3" y1="33.5" x2="28.6" y2="33.7"/>
			<line class="st2" x1="26.5" y1="31.1" x2="26.4" y2="28.2"/>
			<line class="st2" x1="27.8" y1="30.2" x2="31" y2="30.9"/>
			<line class="st2" x1="25.1" y1="31" x2="23.6" y2="29.9"/>
			<path class="st2" d="M23.4,30.1c0,0-2.3,2.8,0.4,5.2c2.7,2.4,4.9,0.5,5.9-0.7c0.9-1.1,2.7-3.4-0.3-5.7S23.4,30.1,23.4,30.1z"/>
		</g>
		<g>
			<line class="st2" x1="27" y1="23.1" x2="26.2" y2="25.1"/>
			<line class="st2" x1="28.9" y1="23.2" x2="31.4" y2="23.5"/>
			<line class="st2" x1="29.1" y1="20.6" x2="29" y2="17.5"/>
			<line class="st2" x1="30.5" y1="19.6" x2="34" y2="20.4"/>
			<line class="st2" x1="27.6" y1="20.5" x2="26" y2="19.3"/>
			<path class="st2" d="M25.8,19.5c0,0-2.5,3,0.5,5.6s5.3,0.5,6.4-0.7c1-1.2,2.9-3.7-0.3-6.1S25.8,19.5,25.8,19.5z"/>
		</g>
		<g>
			<line class="st2" x1="41.8" y1="15.9" x2="39.7" y2="17.2"/>
			<line class="st2" x1="43.5" y1="17.3" x2="45.5" y2="19.3"/>
			<line class="st2" x1="45.5" y1="15.1" x2="47.5" y2="12.3"/>
			<line class="st2" x1="47.5" y1="15.2" x2="50" y2="18.3"/>
			<line class="st2" x1="44.1" y1="14" x2="43.7" y2="11.8"/>
			<path class="st2" d="M43.2,11.8c0,0-4.4,1-3.5,5.4c0.9,4.4,4.5,4.2,6.3,3.8s5.3-1.3,4-5.8C48.8,10.7,43.2,11.8,43.2,11.8z"/>
		</g>
	</g>
	<g>
		<path class="st2" d="M193.9,5.5c0,0-3.4-1.6-6.3-0.9s-3,1.7-5.6,2.5c-2.6,0.7-6.4-1-12.5,3.9c-6.1,4.9-9.3,9.7-11.1,13.3
			c-1.8,3.6-8,7-8.9,9.9c-0.8,2.9-0.7,6.5,0.6,6.4c1.3-0.2,1.8-2.6,4.5-3.1s7.4-0.6,9.5-2.5c2.1-1.9,7.4-8.9,11.1-10.2
			s20.8-7.5,21.6-11.3C198.2,6.3,193.9,5.5,193.9,5.5z"/>
		<path class="st2" d="M185.5,9.2c0,0-1.3-1.3-1.3-3.1"/>
		<path class="st2" d="M183.4,16.5c0,0,0.7,2.3,2.2,4.1"/>
		<path class="st2" d="M192.5,13.3c0,0,0.4,1.8,1.5,2.9"/>
		<path class="st2" d="M178.9,13.8c0,0-2.6-3.7-2-6.4"/>
		<path class="st2" d="M173.1,12c0,0-1-1.9-0.8-3.1"/>
		<path class="st2" d="M170.2,19c0,0,1.3,4.2,4,6.1"/>
		<path class="st2" d="M163.8,21.6c0,0-1.4-1.2-1.8-3.2"/>
		<path class="st2" d="M164.7,28.2c0,0,0.9,1.7,2.4,3.4"/>
		<path class="st2" d="M161.7,28.4c0,0-4-2.9-3.3-4.2"/>
		<path class="st2" d="M157,30.9c0,0-2.1-1.5-1.8-2.9"/>
		<path class="st2" d="M150.8,37.4c0,0,0.7,1,2,0.8"/>
		<path class="st2" d="M162.2,32.9c0,0,0.3,1.3,1.9,1.9"/>
	</g>
	<g>
		<path class="st2" d="M-197.7,35.2c0,0-12.5,4.8-20.1-4.4s-1-19.5-0.2-21.7s-1.5-5.3-1.5-5.3h1.5l-0.2-2.2c0,0,4.6,4.3,5.8,3.8
			s8.8-4.3,15.1-0.8c5.3,3,6,5.5,6,5.5"/>
		<path class="st2" d="M-198.2,39.5h-1.7c0,0,2.8-2.5,2.1-4.3c-0.6-1.8-5.3-8.3-1.7-16.1c3.6-7.8,8.2-9,8.2-9s8.3,0.8,14.3,8.8
			c6,8,7.2,12.8,5,16.8c0,0-2.6,2.9-7.4,4.9c-4.8,2-12-1.6-14.1-1.2c-2.1,0.4-4.5,1.8-4.5,1.8L-198.2,39.5z"/>
		<path class="st2" d="M-191.2,10.1c0,0-8.8,3.2,1.5,16.5c10.3,13.4,17.8,9,17.8,9"/>
		<path class="st2" d="M-198.9,32.7c0,0-4.3-0.8-9.8-7c-7.8-8.8-7.8-16.3-7.8-16.3s-5.2,8.9,2.2,18c7.3,9,16,6.5,16,6.5"/>
		<path class="st2" d="M-214.8,8c0,0,4.7,3.5,9.6,8.5c4.9,5,4.7,5.9,4.7,5.9"/>
		<path class="st2" d="M-195.4,13c0,0-2.7-4-7.8-5.9c-5.5-2-8.8-0.9-8.8-0.9s4.3,0.6,10,5.2s4.6,4.2,4.6,4.2"/>
		<path class="st2" d="M-194.7,17.5c0,0-4.8,4.2-3.7,11.7"/>
		<path class="st2" d="M-189.2,27.4c0,0-4,4.6-5.1,6.5"/>
		<path class="st2" d="M-182.7,33.6c-0.1,1.6-3.8,4.5-7.7,3.9"/>
		<path class="st2" d="M-185.1,38.5c0,0,4.3,0.2,7.1-2.6"/>
		<path class="st2" d="M-196.3,30.6c0,0,1.6-4.7,4.1-6.7"/>
		<path class="st2" d="M-191.2,35.4c0,0,3.9-2.4,4.9-4.9"/>
		<path class="st2" d="M-190.2,12.4c0,0-6,0.2,4.1,13.6s15.6,7.9,11.8,1.7C-178,21.6-183.2,12.7-190.2,12.4z"/>
		<path class="st2" d="M-188.5,16.8c0,0-2,0.2,3.6,7.2s9.4,8.1,8.6,5.7C-177.1,27.3-186.2,14.5-188.5,16.8z"/>
		<path class="st2" d="M-182.7,23.5c0,0-2-2.2-1-0.7c1,1.4,2.6,3,1.9,1.9C-182.4,23.7-182.7,23.5-182.7,23.5z"/>
	</g>
	<g>
		<g>
			<path class="st2" d="M-39.8,24.3c0,0-9.4,3.7-8.3,11.6s11.5,6.7,16.6,3.5s8.5-8.2,4.6-13.1S-37.7,23.2-39.8,24.3z"/>
			<path class="st2" d="M-34.1,25.1c0,0-3.6-0.3-5.8,2.2c-2.2,2.4-2.2,4.1-2.2,4.1"/>
			<path class="st2" d="M-42.1,27.4c0,0-1-0.7-1.4,0.8c-0.4,1.5-1.6,1.4-1.9,3.1s0,5,0,5"/>
			<path class="st2" d="M-44.5,38.1c0,0-2.8,0.7-3.2-0.8"/>
			<path class="st2" d="M-43.8,36.4c0,0,2.2-2,2.5-2.9s0.7-2.7,1.8-3S-37,29-37,29"/>
			<path class="st2" d="M-38.6,34.3c0,0,2.5-2.3,3.5-3.5s0.9-2.8,1.9-3.6"/>
			<path class="st2" d="M-32.3,25.1"/>
			<line class="st2" x1="-28.6" y1="24.6" x2="-32.3" y2="25.1"/>
			<path class="st2" d="M-34,32.4c0,0,2.8-1.6,3.5-3.4c0.6-1.7,3.6-0.8,3.6-0.8s0.6,1.8-3,3.6"/>
			<path class="st2" d="M-28.6,33.6c0,0,0,1-1.8,1.8c-1.8,0.8-3.7-0.8-4.6,0c-0.9,0.8-2.3,2.2-4.3,1.9"/>
			<path class="st2" d="M-42.6,37.4c0,0,1.1,1.6,2.2,1.6s1.1,1.5,1.8,1.5s2.4-0.8,2.4-0.8"/>
			<path class="st2" d="M-42.6,38.9c0,0,0.1,2.8,1.5,2.8"/>
			<path class="st2" d="M-35.1,38.3c0,0,3.3-0.7,3.9-1"/>
		</g>
		<g>
			<path class="st2" d="M-50.6,4.4c0,0-9.3-3.9-14,2.6s3.6,12.8,9.5,14.1s11.8,0,12.4-6.2C-42,8.7-48.4,5.1-50.6,4.4z"/>
			<path class="st2" d="M-47.1,9c0,0-2.4-2.7-5.7-2.5c-3.3,0.3-4.4,1.4-4.4,1.4"/>
			<path class="st2" d="M-54.4,5.1c0,0-0.2-1.2-1.5-0.4c-1.3,0.8-2.1-0.1-3.5,0.9S-63,9.3-63,9.3"/>
			<path class="st2" d="M-63.6,11.1c0,0-2.5-1.4-1.7-2.8"/>
			<path class="st2" d="M-61.9,10.4c0,0,3,0.1,3.8-0.3s2.4-1.5,3.3-0.9c1,0.6,2.8,0.7,2.8,0.7"/>
			<path class="st2" d="M-56.7,12.5c0,0,3.4,0.1,5-0.1s2.6-1.3,3.8-1.2"/>
			<path class="st2" d="M-45.8,10.2"/>
			<line class="st2" x1="-42.8" y1="12.4" x2="-45.8" y2="10.2"/>
			<path class="st2" d="M-52.1,14.3c0,0,3.1,0.8,4.9,0c1.6-0.8,3.2,1.9,3.2,1.9s-0.8,1.8-4.6,0.5"/>
			<path class="st2" d="M-49.1,18.9c0,0-0.7,0.7-2.5,0c-1.9-0.7-2.1-3.1-3.3-3.2s-3.2,0-4.4-1.6"/>
			<path class="st2" d="M-61.7,11.9c0,0-0.3,1.9,0.5,2.7c0.8,0.8-0.3,1.8,0.3,2.3c0.5,0.5,2.3,1.1,2.3,1.1"/>
			<path class="st2" d="M-62.8,13c0,0-1.9,2.1-0.9,3"/>
			<path class="st2" d="M-56.9,17.8c0,0,2.8,1.8,3.5,2"/>
		</g>
	</g>
</g>
</svg>
