<?xml version="1.0" encoding="utf-8"?>
<!-- Generator: Adobe Illustrator 21.0.0, SVG Export Plug-In . SVG Version: 6.00 Build 0)  -->
<svg version="1.1" xmlns="http://www.w3.org/2000/svg" xmlns:xlink="http://www.w3.org/1999/xlink" x="0px" y="0px"
	 viewBox="0 0 53.2 43.8" style="enable-background:new 0 0 53.2 43.8;" xml:space="preserve">
<style type="text/css">
	.st0{display:none;}
	.st1{display:inline;}
	.st2{fill:none;stroke:#000000;stroke-miterlimit:10;}
</style>
<g id="Layer_1" class="st0">
	
		<image style="display:inline;overflow:visible;" width="1500" height="1599" xlink:href="../../../../../../../../Downloads/stock-vector-thin-line-flat-design-spices-menu-vector-icon-set-for-application-website-online-store-and-557081887.jpg"  transform="matrix(0.24 0 0 0.24 -819.75 120)">
	</image>
	<g id="zfRyrB_1_" class="st1">
		
			<image style="overflow:visible;" width="512" height="512" id="zfRyrB_2_" xlink:href="73D2A3CE7467DDDB.png"  transform="matrix(0.1774 0 0 0.1774 -444.3461 352.9265)">
		</image>
	</g>
	<g id="_x39_R5XAw_1_" class="st1">
		
			<image style="overflow:visible;" width="450" height="470" id="_x39_R5XAw_2_" xlink:href="73D2A3CE7467DDD9.png"  transform="matrix(0.2095 0 0 0.2095 -921.1603 259.529)">
		</image>
	</g>
</g>
<g id="Layer_2">
	<g id="garlic">
		<path class="st2" d="M235,37.3c-1.9,0.8-7.3-0.8-7.7-6.6c-0.4-5.8,2.7-9.4,4.8-11.6s7.5-4.8,10.3-7.8s2.6-7.9,2.6-7.9l2.3-1.3
			l0.5,1.7l1-0.7c0,0,0.2,3.7,1.5,5.9c1.4,2.2,2.4,4.1,7.3,6.8c4.9,2.7,8.3,6.7,9,10.6s-0.2,9.9-3.5,10.8c-3.3,1-4.8,0-4.8,0"/>
		<path class="st2" d="M239.6,18.8c0,0-4.2,5-5,8.8c-0.8,3.8-0.7,9.9,3.8,12.9c4.5,3,10.1-1,10.1-1"/>
		<path class="st2" d="M245.1,15c0,0-1.7,6-0.8,12.3s2.1,11.9,5.6,13c4.1,1.3,5.9,0,7.7-1.9c2-2.1,2.7-4.7,1.4-10.6
			c-1.4-6.1-3.7-7.5-7.3-11.5c-3.1-3.4-2.8-4.1-3.1-7.4"/>
	</g>
	<g>
		<g>
			<path class="st2" d="M190.2,23.5c0,0.6-0.6,1.8-1.2,2.3c-0.6,0.5-1.3,0.1-1.9-0.7c-0.6-0.8-0.6-2.7-1.3-3.6
				c-0.7-0.9-0.6-0.8-1.8-1.4c-1.2-0.6-12.9-4.4-13.3-4.7s0.6-2,0.6-2s5.2,0.7,9.8,2.1c4.6,1.4,5.3,1.3,6.3,1.1
				c1-0.1,3.1-2.1,3.9-2.3c0.8-0.1,1.6,0,1.9,0.6c0.3,0.6-0.5,2.1-0.5,2.1"/>
			<path class="st2" d="M189.6,17.3c0,0,0.7-0.9,2-0.5c1.3,0.4,3.1,1.9,3.4,3.2c0.2,1.3-0.5,2.6-1.8,3s-3.2,0.6-4.7-0.3
				c-1.5-0.9,0.3-2.1,0.5-2.7C189.1,19.3,189,18.1,189.6,17.3z"/>
			<path class="st2" d="M188,17.4c0,0-1.4,1.4-1.3,3.4"/>
			<path class="st2" d="M172.7,15.2c0,0,8.5,2.2,11.3,3.9"/>
		</g>
		<g>
			<path class="st2" d="M162.7,6c0.4-0.4,1.7-0.9,2.5-0.8c0.8,0.1,0.9,0.8,0.8,1.8c-0.1,1-1.4,2.4-1.6,3.5c-0.2,1.1-0.1,1,0.3,2.3
				s6,12.2,6,12.7s-1.8,1-1.8,1s-3.2-4.2-5.4-8.4c-2.3-4.3-2.8-4.6-3.7-5.2c-0.8-0.6-3.7-0.7-4.4-1.2c-0.7-0.5-1.1-1.1-0.9-1.8
				c0.2-0.7,1.9-1.1,1.9-1.1"/>
			<path class="st2" d="M158.7,10.8c0,0-1.1,0.1-1.8-1c-0.6-1.1-0.9-3.6-0.1-4.7s2.2-1.5,3.4-0.9s2.7,1.8,3.1,3.5
				c0.5,1.7-1.7,1.3-2.3,1.6S159.7,10.6,158.7,10.8z"/>
			<path class="st2" d="M159.9,11.8c0,0,2,0,3.3-1.4"/>
			<path class="st2" d="M169.1,24.2c0,0-4.5-7.6-5.2-10.7"/>
		</g>
		<g>
			<path class="st2" d="M160.7,32.7c-0.4-0.4-0.9-1.7-0.8-2.5s0.8-0.9,1.8-0.8s2.4,1.4,3.5,1.6c1.1,0.2,1,0.1,2.3-0.3
				c1.3-0.4,12.2-6,12.7-6c0.5,0,1,1.8,1,1.8s-4.2,3.2-8.4,5.4s-4.6,2.8-5.2,3.7c-0.6,0.8-0.7,3.7-1.2,4.4c-0.5,0.7-1.1,1.1-1.8,0.9
				c-0.7-0.2-1.1-1.9-1.1-1.9"/>
			<path class="st2" d="M165.6,36.6c0,0,0.1,1.1-1,1.8c-1.1,0.6-3.6,0.9-4.7,0.1c-1.1-0.8-1.5-2.2-0.9-3.4c0.7-1.2,1.8-2.7,3.5-3.1
				s1.3,1.7,1.6,2.3C164.4,34.8,165.3,35.7,165.6,36.6z"/>
			<path class="st2" d="M166.6,35.5c0,0,0-2-1.4-3.3"/>
			<path class="st2" d="M179,26.2c0,0-7.6,4.5-10.7,5.2"/>
		</g>
	</g>
	<g>
		<g>
			<path class="st2" d="M-268.5,32l-2,3.9c0.2,2,2.7,2.1,3.3,1.2c0.7-0.9,0.4-2.7,0.4-2.7c1-5.4,18.3-27.5,18.3-27.5s0.2-2.5-1.3-3
				s-3,1.5-3,1.5s-5.4,9.4-8.8,13.4s-10.9,13.7-10.9,13.7c-3.2,5.2,3,8.7,3,8.7s5.8,3.2,8.6-1.1c2.8-4.3-1.2-5.9-1.2-5.9
				s-3.5-1.1-2.9,2c0.6,3.1,2.5,2,2.5,2l1.2-3.5"/>
			<path class="st2" d="M-260.1,38c0,0,6.6-14.2,9.5-18.6S-243.1,8-243.1,8s0.6-1.2-0.7-2c-1.3-0.7-3.5,1.6-3.5,1.6l-17.5,26.7"/>
			<path class="st2" d="M-272.6,32.4c0,0,2.5-1.8,4.1-0.4c0,0,1.2,0.7,1.7,2.3"/>
			<line class="st2" x1="-250.2" y1="8.9" x2="-248.5" y2="9.4"/>
		</g>
		<g>
			<path class="st2" d="M-274.3,22.9c0,0,7.5-7.5,10.1-9.6c2.6-2.1,12.7-11.2,12.7-11.2s0.7-3.8-2.3-4c0,0-17.7,12.5-31.4,19.8
				c0,0-5.8,3.5-5,9.2s6.3,5.9,8.1,2.9c1.8-2.9-2.2-6.2-5-2.4"/>
			<path class="st2" d="M-274.9,18.1l-3.4,3.1c0,0-2.4-2.1-3.9,0.8s6.1,6.7,7.9,1s-3.1-7.4-9.9-5.6"/>
			<line class="st2" x1="-281.6" y1="21" x2="-276.2" y2="17.2"/>
		</g>
		<line class="st2" x1="-282.2" y1="23.7" x2="-285.3" y2="26.1"/>
		<line class="st2" x1="-278.9" y1="26.1" x2="-282.2" y2="30.1"/>
	</g>
	<g>
		<path class="st2" d="M93.6,37.5c0,0,3.3-0.2,5.4,0.7c2,0.9,3.9,3.8,3.9,3.8s10.5-4.2,11.5-7c1-2.8-3.4-2.6-4.8-1.7
			s-2.3,1.4-2.3,1.4s5.6-4.7,6.2-6.5c0.7-1.9,1.5-3.1-0.7-4.1c-2.1-1-4.1,3.2-4.7,4.8c0,0-0.6-6.6-0.4-8.2c0.2-1.6,1.2-5.4,3.2-6.3
			c2-1,0.1-3.3-2.3-1.7c0,0,1.8-4.9,1.5-8c-0.3-3.1-4.9-2.6-6-1.8c-2.5,1.8-4.1,5.3-4.1,5.3s-0.1-2.2-1.9-2.2c-1.8,0-1.8,3.9,1,6.5
			c2.7,2.6,3.1,3,3,4.4c-0.1,1.4-0.9-0.3-3.9-0.1c-3,0.2-1.6,3.5-1.1,4.1c0.5,0.6,4.7,2.1,5.2,3.7s-0.6,4.1-1.4,4s-5.3-4.5-6.3-8
			s-0.1-6-1.7-8.8C91.4,9,87.6,9.1,86.5,11s0.9,5.9,0.9,5.9s-2.6-1.6-4,0s1.4,7.2,8.2,9.6c0,0-8.8-2.8-10-0.1
			c-1.3,2.7,0.6,4.7,5.6,5.7C92.1,32.9,93.6,37.5,93.6,37.5z"/>
		<path class="st2" d="M89.5,13.3c0,0-3.3,0.3-3,1.1"/>
		<path class="st2" d="M90.7,16.7c0,0,2.6-0.6,3.3,0.1"/>
		<path class="st2" d="M93.2,21c0,0-2.7,1.1-3,2"/>
		<path class="st2" d="M85.3,28.2c0,0,0.2-3.2,1.1-3"/>
		<path class="st2" d="M88.9,29c0,0-1.3,3-0.9,3.2"/>
		<path class="st2" d="M96.7,29.7c0,0-3.4,2.8-4,5.9"/>
		<path class="st2" d="M104.6,8.3c0,0,3.9-0.5,5,1.4"/>
		<path class="st2" d="M106,13.8c0,0-3.9-1-4.4,1.2"/>
		<path class="st2" d="M103.8,20.5c0,0,3.1-1.2,3.9,1.5"/>
		<path class="st2" d="M100.8,20.3c0,0-1.7,0.8-1.4,1.8"/>
		<path class="st2" d="M104.2,29.7c0,0,5.3,1.7,5.5,3.6"/>
		<path class="st2" d="M103.1,36.6c0,0,2.8,1.5,2.7,4.1"/>
	</g>
	<g>
		<g>
			<path class="st2" d="M-64.8,16.9c0,0,4.1-8,14.7-9S-34,14.5-34,14.5s-9,1.7-15.4,2.4S-64.8,16.9-64.8,16.9z"/>
			<path class="st2" d="M-64.8,16.9c0,0,7.2-6.1,14.5-6.5s16.3,4,16.3,4"/>
			<path class="st2" d="M-63.5,16.9c0,0,8.4-2.6,13.3-3c5.2-0.4,14.4,0.9,14.4,0.9"/>
		</g>
		<g>
			<path class="st2" d="M-66.9,36.1c0,0-0.5-6.9,6.1-11.8s13.2-2.2,13.2-2.2s-5.2,4.8-9.2,7.8S-66.9,36.1-66.9,36.1z"/>
			<path class="st2" d="M-66.9,36.1c0,0,2.3-6.9,7-10.1c4.7-3.2,12.4-3.9,12.4-3.9"/>
			<path class="st2" d="M-66,35.6c0,0,4.5-5.1,7.6-7.3c3.3-2.3,9.8-5.2,9.8-5.2"/>
		</g>
		<g>
			<path class="st2" d="M-24.4,13.9c0,0-0.1,7.6-7.8,12.4s-14.7,1.1-14.7,1.1s6.2-4.7,10.8-7.7S-24.4,13.9-24.4,13.9z"/>
			<path class="st2" d="M-24.4,13.9c0,0-3.2,7.3-8.6,10.4s-13.9,3.1-13.9,3.1"/>
			<path class="st2" d="M-25.4,14.4c0,0-5.4,5.2-9,7.3c-3.8,2.2-11.3,4.7-11.3,4.7"/>
		</g>
	</g>
	<g>
		<path class="st2" d="M300.6,41.7c0,0,12.1-23.2,33-30.1"/>
		<path class="st2" d="M345.2,6.2c0,0-2,7.1-9.2,10.1S322.7,17,322.7,17s1.1-5.4,7.8-8.9C337.1,4.6,345.2,6.2,345.2,6.2z"/>
		<path class="st2" d="M309.8,1.1c0,0,5.4,3.8,5.6,10.5c0.2,6.7-5.6,12.9-5.6,12.9s-5.1-4.8-5.1-10.9S309.8,1.1,309.8,1.1z"/>
		<line class="st2" x1="310" y1="10.5" x2="310" y2="28.4"/>
		<path class="st2" d="M335.5,37.4c0,0-3.3,3.9-12.8,2.8s-12-7.1-12-7.1s3.6-3.5,12.4-2.5S335.5,37.4,335.5,37.4z"/>
		<path class="st2" d="M326.1,35.4c0,0-13.4-2.1-19.7-2.6"/>
	</g>
	<g>
		<g>
			<line class="st2" x1="-131.7" y1="23.7" x2="-133.7" y2="23.5"/>
			<line class="st2" x1="-131.3" y1="25.4" x2="-131.1" y2="27.7"/>
			<line class="st2" x1="-129" y1="25" x2="-126.3" y2="24.2"/>
			<line class="st2" x1="-127.8" y1="26.1" x2="-127.7" y2="29.3"/>
			<line class="st2" x1="-129.3" y1="23.6" x2="-128.5" y2="22"/>
			<path class="st2" d="M-128.8,21.8c0,0-3.3-1.6-4.9,1.7c-1.7,3.2,0.7,4.9,2.1,5.5c1.3,0.6,4,1.8,5.5-1.7
				C-124.7,23.9-128.8,21.8-128.8,21.8z"/>
		</g>
		<g>
			<line class="st2" x1="-136.4" y1="30.7" x2="-135.6" y2="28.9"/>
			<line class="st2" x1="-138.2" y1="30.6" x2="-140.5" y2="30.1"/>
			<line class="st2" x1="-138.5" y1="32.9" x2="-138.7" y2="35.8"/>
			<line class="st2" x1="-140" y1="33.7" x2="-143" y2="32.8"/>
			<line class="st2" x1="-137.1" y1="33.1" x2="-135.8" y2="34.4"/>
			<path class="st2" d="M-135.6,34.1c0,0,2.5-2.6,0-5.2c-2.6-2.6-4.9-0.8-5.9,0.2c-1,1.1-3,3.2-0.1,5.7
				C-138.8,37.4-135.6,34.1-135.6,34.1z"/>
		</g>
		<g>
			<line class="st2" x1="-128.9" y1="15.2" x2="-130.8" y2="15.8"/>
			<line class="st2" x1="-127.8" y1="16.6" x2="-126.6" y2="18.5"/>
			<line class="st2" x1="-125.9" y1="15.2" x2="-123.7" y2="13.3"/>
			<line class="st2" x1="-124.3" y1="15.7" x2="-122.9" y2="18.5"/>
			<line class="st2" x1="-126.7" y1="14.1" x2="-126.7" y2="12.2"/>
			<path class="st2" d="M-127.1,12.2c0,0-3.6,0-3.7,3.6c-0.1,3.6,2.8,4.1,4.3,4.1s4.4-0.1,4.2-3.9S-127.1,12.2-127.1,12.2z"/>
		</g>
		<g>
			<line class="st2" x1="-122" y1="33.4" x2="-122.7" y2="35.3"/>
			<line class="st2" x1="-120.2" y1="33.5" x2="-117.9" y2="33.7"/>
			<line class="st2" x1="-120" y1="31.1" x2="-120.1" y2="28.2"/>
			<line class="st2" x1="-118.7" y1="30.2" x2="-115.5" y2="30.9"/>
			<line class="st2" x1="-121.4" y1="31" x2="-122.9" y2="29.9"/>
			<path class="st2" d="M-123.1,30.1c0,0-2.3,2.8,0.4,5.2c2.7,2.4,4.9,0.5,5.9-0.7c0.9-1.1,2.7-3.4-0.3-5.7S-123.1,30.1-123.1,30.1z
				"/>
		</g>
		<g>
			<line class="st2" x1="-119.5" y1="23.1" x2="-120.3" y2="25.1"/>
			<line class="st2" x1="-117.6" y1="23.2" x2="-115.1" y2="23.5"/>
			<line class="st2" x1="-117.4" y1="20.6" x2="-117.5" y2="17.5"/>
			<line class="st2" x1="-116" y1="19.6" x2="-112.5" y2="20.4"/>
			<line class="st2" x1="-118.9" y1="20.5" x2="-120.5" y2="19.3"/>
			<path class="st2" d="M-120.7,19.5c0,0-2.5,3,0.5,5.6c3,2.6,5.3,0.5,6.4-0.7c1-1.2,2.9-3.7-0.3-6.1S-120.7,19.5-120.7,19.5z"/>
		</g>
		<g>
			<line class="st2" x1="-104.7" y1="15.9" x2="-106.8" y2="17.2"/>
			<line class="st2" x1="-103" y1="17.3" x2="-101" y2="19.3"/>
			<line class="st2" x1="-101" y1="15.1" x2="-99" y2="12.3"/>
			<line class="st2" x1="-99" y1="15.2" x2="-96.5" y2="18.3"/>
			<line class="st2" x1="-102.4" y1="14" x2="-102.8" y2="11.8"/>
			<path class="st2" d="M-103.3,11.8c0,0-4.4,1-3.5,5.4s4.5,4.2,6.3,3.8c1.8-0.4,5.3-1.3,4-5.8S-103.3,11.8-103.3,11.8z"/>
		</g>
	</g>
	<g>
		<path class="st2" d="M47.4,5.5c0,0-3.4-1.6-6.3-0.9s-3,1.7-5.6,2.5C33,7.8,29.1,6,23,10.9s-9.3,9.7-11.1,13.3s-8,7-8.9,9.9
			s-0.7,6.5,0.6,6.4c1.3-0.2,1.8-2.6,4.5-3.1s7.4-0.6,9.5-2.5c2.1-1.9,7.4-8.9,11.1-10.2s20.8-7.5,21.6-11.3
			C51.7,6.3,47.4,5.5,47.4,5.5z"/>
		<path class="st2" d="M39,9.2c0,0-1.3-1.3-1.3-3.1"/>
		<path class="st2" d="M36.9,16.5c0,0,0.7,2.3,2.2,4.1"/>
		<path class="st2" d="M46,13.3c0,0,0.4,1.8,1.5,2.9"/>
		<path class="st2" d="M32.4,13.8c0,0-2.6-3.7-2-6.4"/>
		<path class="st2" d="M26.6,12c0,0-1-1.9-0.8-3.1"/>
		<path class="st2" d="M23.7,19c0,0,1.3,4.2,4,6.1"/>
		<path class="st2" d="M17.3,21.6c0,0-1.4-1.2-1.8-3.2"/>
		<path class="st2" d="M18.2,28.2c0,0,0.9,1.7,2.4,3.4"/>
		<path class="st2" d="M15.2,28.4c0,0-4-2.9-3.3-4.2"/>
		<path class="st2" d="M10.5,30.9c0,0-2.1-1.5-1.8-2.9"/>
		<path class="st2" d="M4.3,37.4c0,0,0.7,1,2,0.8"/>
		<path class="st2" d="M15.7,32.9c0,0,0.3,1.3,1.9,1.9"/>
	</g>
	<g>
		<path class="st2" d="M-344.2,35.2c0,0-12.5,4.8-20.1-4.4s-1-19.5-0.2-21.7s-1.5-5.3-1.5-5.3h1.5l-0.2-2.2c0,0,4.6,4.3,5.8,3.8
			s8.8-4.3,15.1-0.8c5.3,3,6,5.5,6,5.5"/>
		<path class="st2" d="M-344.7,39.5h-1.7c0,0,2.8-2.5,2.1-4.3c-0.6-1.8-5.3-8.3-1.7-16.1c3.6-7.8,8.2-9,8.2-9s8.3,0.8,14.3,8.8
			c6,8,7.2,12.8,5,16.8c0,0-2.6,2.9-7.4,4.9c-4.8,2-12-1.6-14.1-1.2c-2.1,0.4-4.5,1.8-4.5,1.8L-344.7,39.5z"/>
		<path class="st2" d="M-337.8,10.1c0,0-8.8,3.2,1.5,16.5c10.3,13.4,17.8,9,17.8,9"/>
		<path class="st2" d="M-345.4,32.7c0,0-4.3-0.8-9.8-7c-7.8-8.8-7.8-16.3-7.8-16.3s-5.2,8.9,2.2,18c7.3,9,16,6.5,16,6.5"/>
		<path class="st2" d="M-361.2,8c0,0,4.7,3.5,9.6,8.5c4.9,5,4.7,5.9,4.7,5.9"/>
		<path class="st2" d="M-341.9,13c0,0-2.7-4-7.8-5.9c-5.5-2-8.8-0.9-8.8-0.9s4.3,0.6,10,5.2s4.6,4.2,4.6,4.2"/>
		<path class="st2" d="M-341.2,17.5c0,0-4.8,4.2-3.7,11.7"/>
		<path class="st2" d="M-335.7,27.4c0,0-4,4.6-5.1,6.5"/>
		<path class="st2" d="M-329.2,33.6c-0.1,1.6-3.8,4.5-7.7,3.9"/>
		<path class="st2" d="M-331.6,38.5c0,0,4.3,0.2,7.1-2.6"/>
		<path class="st2" d="M-342.8,30.6c0,0,1.6-4.7,4.1-6.7"/>
		<path class="st2" d="M-337.8,35.4c0,0,3.9-2.4,4.9-4.9"/>
		<path class="st2" d="M-336.7,12.4c0,0-6,0.2,4.1,13.6s15.6,7.9,11.8,1.7C-324.5,21.6-329.7,12.7-336.7,12.4z"/>
		<path class="st2" d="M-335,16.8c0,0-2,0.2,3.6,7.2s9.4,8.1,8.6,5.7C-323.6,27.3-332.7,14.5-335,16.8z"/>
		<path class="st2" d="M-329.2,23.5c0,0-2-2.2-1-0.7c1,1.4,2.6,3,1.9,1.9C-328.9,23.7-329.2,23.5-329.2,23.5z"/>
	</g>
	<g>
		<g>
			<path class="st2" d="M-186.3,24.3c0,0-9.4,3.7-8.3,11.6s11.5,6.7,16.6,3.5c5.1-3.1,8.5-8.2,4.6-13.1
				C-177.2,21.4-184.2,23.2-186.3,24.3z"/>
			<path class="st2" d="M-180.6,25.1c0,0-3.6-0.3-5.8,2.2s-2.2,4.1-2.2,4.1"/>
			<path class="st2" d="M-188.6,27.4c0,0-1-0.7-1.4,0.8s-1.6,1.4-1.9,3.1s0,5,0,5"/>
			<path class="st2" d="M-191,38.1c0,0-2.8,0.7-3.2-0.8"/>
			<path class="st2" d="M-190.3,36.4c0,0,2.2-2,2.5-2.9s0.7-2.7,1.8-3s2.5-1.5,2.5-1.5"/>
			<path class="st2" d="M-185.1,34.3c0,0,2.5-2.3,3.5-3.5s0.9-2.8,1.9-3.6"/>
			<path class="st2" d="M-178.8,25.1"/>
			<line class="st2" x1="-175.1" y1="24.6" x2="-178.8" y2="25.1"/>
			<path class="st2" d="M-180.5,32.4c0,0,2.8-1.6,3.5-3.4c0.6-1.7,3.6-0.8,3.6-0.8s0.6,1.8-3,3.6"/>
			<path class="st2" d="M-175.1,33.6c0,0,0,1-1.8,1.8c-1.8,0.8-3.7-0.8-4.6,0s-2.3,2.2-4.3,1.9"/>
			<path class="st2" d="M-189.1,37.4c0,0,1.1,1.6,2.2,1.6s1.1,1.5,1.8,1.5s2.4-0.8,2.4-0.8"/>
			<path class="st2" d="M-189.1,38.9c0,0,0.1,2.8,1.5,2.8"/>
			<path class="st2" d="M-181.6,38.3c0,0,3.3-0.7,3.9-1"/>
		</g>
		<g>
			<path class="st2" d="M-197.1,4.4c0,0-9.3-3.9-14,2.6c-4.7,6.4,3.6,12.8,9.5,14.1c5.9,1.3,11.8,0,12.4-6.2
				C-188.5,8.7-194.9,5.1-197.1,4.4z"/>
			<path class="st2" d="M-193.6,9c0,0-2.4-2.7-5.7-2.5c-3.3,0.3-4.4,1.4-4.4,1.4"/>
			<path class="st2" d="M-200.9,5.1c0,0-0.2-1.2-1.5-0.4s-2.1-0.1-3.5,0.9s-3.5,3.6-3.5,3.6"/>
			<path class="st2" d="M-210.1,11.1c0,0-2.5-1.4-1.7-2.8"/>
			<path class="st2" d="M-208.4,10.4c0,0,3,0.1,3.8-0.3s2.4-1.5,3.3-0.9c1,0.6,2.8,0.7,2.8,0.7"/>
			<path class="st2" d="M-203.2,12.5c0,0,3.4,0.1,5-0.1s2.6-1.3,3.8-1.2"/>
			<path class="st2" d="M-192.3,10.2"/>
			<line class="st2" x1="-189.3" y1="12.4" x2="-192.3" y2="10.2"/>
			<path class="st2" d="M-198.6,14.3c0,0,3.1,0.8,4.9,0c1.6-0.8,3.2,1.9,3.2,1.9s-0.8,1.8-4.6,0.5"/>
			<path class="st2" d="M-195.6,18.9c0,0-0.7,0.7-2.5,0c-1.9-0.7-2.1-3.1-3.3-3.2s-3.2,0-4.4-1.6"/>
			<path class="st2" d="M-208.2,11.9c0,0-0.3,1.9,0.5,2.7s-0.3,1.8,0.3,2.3c0.5,0.5,2.3,1.1,2.3,1.1"/>
			<path class="st2" d="M-209.3,13c0,0-1.9,2.1-0.9,3"/>
			<path class="st2" d="M-203.4,17.8c0,0,2.8,1.8,3.5,2"/>
		</g>
	</g>
</g>
</svg>
