<?xml version="1.0" encoding="utf-8"?>
<!-- Generator: Adobe Illustrator 21.0.0, SVG Export Plug-In . SVG Version: 6.00 Build 0)  -->
<svg version="1.1" xmlns="http://www.w3.org/2000/svg" xmlns:xlink="http://www.w3.org/1999/xlink" x="0px" y="0px"
	 viewBox="0 0 53.2 47.8" style="enable-background:new 0 0 53.2 47.8;" xml:space="preserve">
<style type="text/css">
	.st0{display:none;}
	.st1{display:inline;}
	.st2{fill:none;stroke:#582134;stroke-width:1.728;stroke-miterlimit:10;}
</style>
<g id="Layer_1" class="st0">
</g>
<g id="Layer_2">
	<g>
		<g>
			<path class="st2" d="M24.5,36l-2,3.9c0.2,2,2.7,2.1,3.3,1.2c0.7-0.9,0.4-2.7,0.4-2.7c1-5.4,18.3-27.5,18.3-27.5s0.2-2.5-1.3-3
				c-1.5-0.6-3,1.5-3,1.5s-5.4,9.4-8.8,13.4S20.4,36.4,20.4,36.4c-3.2,5.2,3,8.7,3,8.7s5.8,3.2,8.6-1.1s-1.2-5.9-1.2-5.9
				s-3.5-1.1-2.9,2c0.6,3.1,2.5,2,2.5,2l1.2-3.5"/>
			<path class="st2" d="M32.9,42c0,0,6.6-14.2,9.5-18.6c2.9-4.3,7.6-11.4,7.6-11.4s0.6-1.2-0.7-2c-1.3-0.7-3.5,1.6-3.5,1.6
				L28.2,38.4"/>
			<path class="st2" d="M20.4,36.4c0,0,2.5-1.8,4.1-0.4c0,0,1.2,0.7,1.7,2.3"/>
			<line class="st2" x1="42.8" y1="12.9" x2="44.5" y2="13.4"/>
		</g>
		<g>
			<path class="st2" d="M18.7,26.9c0,0,7.5-7.5,10.1-9.6c2.6-2.1,12.7-11.2,12.7-11.2s0.7-3.8-2.3-4c0,0-17.7,12.5-31.4,19.8
				c0,0-5.8,3.5-5,9.2S9,37,10.8,34.1s-2.2-6.2-5-2.4"/>
			<path class="st2" d="M18.1,22.1l-3.4,3.1c0,0-2.4-2.1-3.9,0.8s6.1,6.7,7.9,1s-3.1-7.4-9.9-5.6"/>
			<line class="st2" x1="11.4" y1="25" x2="16.8" y2="21.2"/>
		</g>
		<line class="st2" x1="10.8" y1="27.7" x2="7.7" y2="30.1"/>
		<line class="st2" x1="14.1" y1="30.1" x2="10.8" y2="34.1"/>
	</g>
</g>
</svg>
