<?xml version="1.0" encoding="utf-8"?>
<!-- Generator: Adobe Illustrator 21.0.0, SVG Export Plug-In . SVG Version: 6.00 Build 0)  -->
<svg version="1.1" xmlns="http://www.w3.org/2000/svg" xmlns:xlink="http://www.w3.org/1999/xlink" x="0px" y="0px"
	 viewBox="0 0 53.2 43.8" style="enable-background:new 0 0 53.2 43.8;" xml:space="preserve">
<style type="text/css">
	.st0{display:none;}
	.st1{display:inline;}
	.st2{fill:none;stroke:#582134;stroke-width:1.728;stroke-miterlimit:10;}
</style>
<g id="Layer_1" class="st0">
</g>
<g id="Layer_2">
	<g>
		<path class="st2" d="M20.4,37.5c0,0,3.3-0.2,5.4,0.7s3.9,3.8,3.9,3.8s10.5-4.2,11.5-7c1-2.8-3.4-2.6-4.8-1.7
			c-1.4,1-2.3,1.4-2.3,1.4s5.6-4.7,6.2-6.5c0.7-1.9,1.5-3.1-0.7-4.1c-2.1-1-4.1,3.2-4.7,4.8c0,0-0.6-6.6-0.4-8.2s1.2-5.4,3.2-6.3
			c2-1,0.1-3.3-2.3-1.7c0,0,1.8-4.9,1.5-8c-0.3-3.1-4.9-2.6-6-1.8c-2.5,1.8-4.1,5.3-4.1,5.3s-0.1-2.2-1.9-2.2s-1.8,3.9,1,6.5
			s3.1,3,3,4.4S28,16.5,25,16.7c-3,0.2-1.6,3.5-1.1,4.1c0.5,0.6,4.7,2.1,5.2,3.7c0.5,1.6-0.6,4.1-1.4,4c-0.8-0.1-5.3-4.5-6.3-8
			c-1.1-3.5-0.1-6-1.7-8.8s-5.4-2.6-6.4-0.8s0.9,5.9,0.9,5.9s-2.6-1.6-4,0s1.4,7.2,8.2,9.6c0,0-8.8-2.8-10-0.1s0.6,4.7,5.6,5.7
			C18.8,32.9,20.4,37.5,20.4,37.5z"/>
		<path class="st2" d="M16.3,13.3c0,0-3.3,0.3-3,1.1"/>
		<path class="st2" d="M17.5,16.7c0,0,2.6-0.6,3.3,0.1"/>
		<path class="st2" d="M20,21c0,0-2.7,1.1-3,2"/>
		<path class="st2" d="M12.1,28.2c0,0,0.2-3.2,1.1-3"/>
		<path class="st2" d="M15.7,29c0,0-1.3,3-0.9,3.2"/>
		<path class="st2" d="M23.4,29.7c0,0-3.4,2.8-4,5.9"/>
		<path class="st2" d="M31.3,8.3c0,0,3.9-0.5,5,1.4"/>
		<path class="st2" d="M32.8,13.8c0,0-3.9-1-4.4,1.2"/>
		<path class="st2" d="M30.6,20.5c0,0,3.1-1.2,3.9,1.5"/>
		<path class="st2" d="M27.5,20.3c0,0-1.7,0.8-1.4,1.8"/>
		<path class="st2" d="M30.9,29.7c0,0,5.3,1.7,5.5,3.6"/>
		<path class="st2" d="M29.8,36.6c0,0,2.8,1.5,2.7,4.1"/>
	</g>
</g>
</svg>
