<?xml version="1.0" encoding="UTF-8"?>
<svg width="1366px" height="911px" viewBox="0 0 1366 911" version="1.1" xmlns="http://www.w3.org/2000/svg" xmlns:xlink="http://www.w3.org/1999/xlink">
    <!-- Generator: Sketch 43.2 (39069) - http://www.bohemiancoding.com/sketch -->
    <title>overlay</title>
    <desc>Created with Sketch.</desc>
    <defs></defs>
    <g id="Page-4" stroke="none" stroke-width="1" fill="none" fill-rule="evenodd">
        <g id="Group" transform="translate(925.000000, 71.000000)">
            <path d="M98.5269997,44.612 L130.115,44.612 L96.2919997,99.742 L96.2919997,106 L151.869,106 L151.869,92.292 L116.407,92.292 L150.23,37.162 L150.23,30.904 L98.5269997,30.904 L98.5269997,44.612 Z M194.81,43.42 C184.529,43.42 178.122,50.423 176.483,59.81 L212.988,59.81 C211.647,51.466 205.985,43.42 194.81,43.42 Z M229.378,66.068 L229.378,72.773 L176.185,72.773 C176.185,83.799 182.592,93.484 194.81,93.484 C202.856,93.484 210.604,89.014 214.478,80.819 L227.739,86.034 C220.438,100.189 211.945,107.192 194.81,107.192 C170.076,107.192 159.795,86.332 159.795,68.452 C159.795,50.572 170.076,29.712 194.81,29.712 C218.799,29.712 229.378,49.231 229.378,66.068 Z M267.551,29.712 C253.992,29.712 244.456,39.397 244.456,51.019 C244.456,62.492 251.906,68.005 260.548,71.581 C269.339,75.306 278.428,77.094 278.428,83.65 C278.428,90.504 274.256,93.484 268.296,93.484 C259.952,93.484 254.737,86.63 251.757,79.925 L238.645,87.077 C242.519,96.464 252.204,107.192 267.7,107.192 C283.792,107.192 293.775,96.315 293.775,83.352 C293.775,69.942 282.898,65.472 272.766,61.598 C265.018,58.618 259.356,56.234 259.356,50.87 C259.356,45.953 262.932,43.42 266.806,43.42 C271.574,43.42 276.193,45.506 279.918,50.274 L289.752,41.632 C284.984,34.182 276.64,29.712 267.551,29.712 Z M299.764,44.612 L312.28,44.612 L312.28,80.372 C312.28,98.848 322.71,107.192 336.865,107.192 C341.037,107.192 344.911,106.447 348.934,104.51 L344.911,91.398 C342.229,93.037 340.441,93.484 337.759,93.484 C330.905,93.484 327.776,89.759 327.776,81.266 L327.776,44.612 L347.295,44.612 L347.295,30.904 L327.776,30.904 L327.776,0.508 L312.28,10.193 L312.28,30.904 L299.764,30.904 L299.764,44.612 Z" id="zest" fill="#15181C" opacity="0.729336504"></path>
            <path d="M11.152,153.2 L14.848,153.2 L25.804,184 L21.8,184 L19.028,175.772 L6.972,175.772 L4.2,184 L0.196,184 L11.152,153.2 Z M13,158.216 L8.248,172.076 L17.752,172.076 L13,158.216 Z M67.472,161.472 C63.38,161.472 59.904,163.936 59.904,167.896 C59.904,172.252 63.336,173.528 67.076,174.32 C70.596,175.068 72.796,175.684 72.796,177.576 C72.796,179.908 70.596,181.008 68.088,181.008 C65.052,181.008 62.94,179.336 61.972,176.608 L58.452,177.928 C59.816,182.152 63.644,184.352 68.088,184.352 C72.664,184.352 76.624,181.8 76.624,177.224 C76.624,173.22 72.796,172.032 68.66,171.196 C65.36,170.536 63.512,169.656 63.512,167.764 C63.512,165.608 65.448,164.816 67.34,164.816 C69.716,164.816 71.3,165.872 72.664,168.336 L75.568,166.268 C73.896,163.232 71.476,161.472 67.472,161.472 Z M107.072,167.456 C107.072,163.232 104.96,161.472 102.232,161.472 C99.9,161.472 97.92,162.968 96.776,165.08 C96.16,162.88 94.708,161.472 92.2,161.472 C89.912,161.472 88.152,162.792 87.008,164.64 L87.008,161.824 L83.312,161.824 L83.312,184 L87.008,184 L87.008,173.572 C87.008,167.368 88.812,164.86 90.924,164.86 C92.64,164.86 93.344,165.828 93.344,168.248 L93.344,184 L97.04,184 L97.04,173.572 C97.04,167.368 98.844,164.86 100.956,164.86 C102.672,164.86 103.376,165.828 103.376,168.248 L103.376,184 L107.072,184 L107.072,167.456 Z M117.148,177.62 C117.148,179.732 118.6,181.008 120.8,181.008 C123.66,181.008 127.884,179.248 127.884,174.232 L127.884,173.528 L123.044,173.528 C119.26,173.528 117.148,175.112 117.148,177.62 Z M131.58,170.008 L131.58,184 L128.588,184 L128.06,180.876 C126.652,182.9 123.528,184.352 120.228,184.352 C116.532,184.352 113.364,182.152 113.364,177.62 C113.364,172.692 117.324,170.36 123.396,170.36 L127.884,170.36 L127.884,169.392 C127.884,165.96 125.464,164.816 122.78,164.816 C120.184,164.816 118.248,166.444 117.544,168.6 L114.288,167.72 C115.3,163.848 118.732,161.472 122.78,161.472 C127.972,161.472 131.58,163.892 131.58,170.008 Z M160.356,168.864 C160.092,164.112 157.452,161.472 153.052,161.472 C149.356,161.472 146.584,163.232 144.868,165.916 L144.868,161.824 L141.172,161.824 L141.172,184 L144.868,184 L144.868,175.992 C144.868,168.468 148.52,164.816 152.392,164.816 C155.032,164.816 156.352,166.312 156.66,168.864 L160.356,168.864 Z M165.944,165.168 L171.84,165.168 L171.84,176.652 C171.84,181.8 174.524,184.352 179.364,184.352 C182.136,184.352 184.16,183.516 186.184,181.492 L184.82,178.368 C182.884,180.392 181.3,181.008 179.364,181.008 C176.9,181.008 175.536,179.6 175.536,176.52 L175.536,165.168 L186.36,165.168 L186.36,161.824 L175.536,161.824 L175.536,152.848 L171.84,155.18 L171.84,161.824 L165.944,161.824 L165.944,165.168 Z M231.152,161.472 C227.06,161.472 223.584,163.936 223.584,167.896 C223.584,172.252 227.016,173.528 230.756,174.32 C234.276,175.068 236.476,175.684 236.476,177.576 C236.476,179.908 234.276,181.008 231.768,181.008 C228.732,181.008 226.62,179.336 225.652,176.608 L222.132,177.928 C223.496,182.152 227.324,184.352 231.768,184.352 C236.344,184.352 240.304,181.8 240.304,177.224 C240.304,173.22 236.476,172.032 232.34,171.196 C229.04,170.536 227.192,169.656 227.192,167.764 C227.192,165.608 229.128,164.816 231.02,164.816 C233.396,164.816 234.98,165.872 236.344,168.336 L239.248,166.268 C237.576,163.232 235.156,161.472 231.152,161.472 Z M270.092,172.912 C270.092,179.688 266.44,184.352 259.928,184.352 C256.848,184.352 254.384,182.856 253.152,181.184 L253.152,192.976 L249.456,192.976 L249.456,161.824 L253.152,161.824 L253.152,164.772 C254.384,163.056 256.892,161.472 259.928,161.472 C266.44,161.472 270.092,166.136 270.092,172.912 Z M266.308,172.912 C266.308,168.16 263.8,164.816 259.576,164.816 C255.352,164.816 252.844,168.16 252.844,172.912 C252.844,177.664 255.352,181.008 259.576,181.008 C263.8,181.008 266.308,177.664 266.308,172.912 Z M277.836,165.08 L284.612,165.08 L284.612,180.744 L276.956,180.744 L276.956,184 L296.492,184 L296.492,180.744 L288.308,180.744 L288.308,161.824 L277.836,161.824 L277.836,165.08 Z M283.16,155.928 C283.16,157.6 284.524,158.92 286.196,158.92 C287.912,158.92 289.232,157.6 289.232,155.928 C289.232,154.212 287.912,152.848 286.196,152.848 C284.524,152.848 283.16,154.212 283.16,155.928 Z M320.12,176.916 C318.976,179.6 316.996,181.008 313.96,181.008 C309.56,181.008 307.14,177.488 307.14,172.912 C307.14,168.336 309.56,164.816 313.96,164.816 C316.996,164.816 318.976,166.224 320.12,168.908 L323.332,167.588 C321.528,163.452 318.536,161.472 313.96,161.472 C307.184,161.472 303.356,166.884 303.356,172.912 C303.356,178.94 307.184,184.352 313.96,184.352 C318.536,184.352 321.528,182.372 323.332,178.236 L320.12,176.916 Z M351.184,172.164 L351.184,173.704 L333.848,173.704 C334.068,178.104 336.752,181.008 340.668,181.008 C344.012,181.008 346.3,179.38 347.796,176.608 L350.744,178.148 C348.324,182.812 344.804,184.352 340.668,184.352 C334.2,184.352 330.064,179.38 330.064,172.912 C330.064,166.664 334.024,161.472 340.668,161.472 C347.532,161.472 351.184,166.356 351.184,172.164 Z M340.668,164.816 C337.104,164.816 334.86,167.016 334.112,170.36 L347.268,170.36 C346.608,166.84 344.276,164.816 340.668,164.816 Z M176.592,214.472 C172.5,214.472 169.024,216.936 169.024,220.896 C169.024,225.252 172.456,226.528 176.196,227.32 C179.716,228.068 181.916,228.684 181.916,230.576 C181.916,232.908 179.716,234.008 177.208,234.008 C174.172,234.008 172.06,232.336 171.092,229.608 L167.572,230.928 C168.936,235.152 172.764,237.352 177.208,237.352 C181.784,237.352 185.744,234.8 185.744,230.224 C185.744,226.22 181.916,225.032 177.78,224.196 C174.48,223.536 172.632,222.656 172.632,220.764 C172.632,218.608 174.568,217.816 176.46,217.816 C178.836,217.816 180.42,218.872 181.784,221.336 L184.688,219.268 C183.016,216.232 180.596,214.472 176.592,214.472 Z M193.224,218.168 L199.12,218.168 L199.12,229.652 C199.12,234.8 201.804,237.352 206.644,237.352 C209.416,237.352 211.44,236.516 213.464,234.492 L212.1,231.368 C210.164,233.392 208.58,234.008 206.644,234.008 C204.18,234.008 202.816,232.6 202.816,229.52 L202.816,218.168 L213.64,218.168 L213.64,214.824 L202.816,214.824 L202.816,205.848 L199.12,208.18 L199.12,214.824 L193.224,214.824 L193.224,218.168 Z M226.268,230.62 C226.268,232.732 227.72,234.008 229.92,234.008 C232.78,234.008 237.004,232.248 237.004,227.232 L237.004,226.528 L232.164,226.528 C228.38,226.528 226.268,228.112 226.268,230.62 Z M240.7,223.008 L240.7,237 L237.708,237 L237.18,233.876 C235.772,235.9 232.648,237.352 229.348,237.352 C225.652,237.352 222.484,235.152 222.484,230.62 C222.484,225.692 226.444,223.36 232.516,223.36 L237.004,223.36 L237.004,222.392 C237.004,218.96 234.584,217.816 231.9,217.816 C229.304,217.816 227.368,219.444 226.664,221.6 L223.408,220.72 C224.42,216.848 227.852,214.472 231.9,214.472 C237.092,214.472 240.7,216.892 240.7,223.008 Z M247.784,218.168 L253.68,218.168 L253.68,229.652 C253.68,234.8 256.364,237.352 261.204,237.352 C263.976,237.352 266,236.516 268.024,234.492 L266.66,231.368 C264.724,233.392 263.14,234.008 261.204,234.008 C258.74,234.008 257.376,232.6 257.376,229.52 L257.376,218.168 L268.2,218.168 L268.2,214.824 L257.376,214.824 L257.376,205.848 L253.68,208.18 L253.68,214.824 L247.784,214.824 L247.784,218.168 Z M277.836,218.08 L284.612,218.08 L284.612,233.744 L276.956,233.744 L276.956,237 L296.492,237 L296.492,233.744 L288.308,233.744 L288.308,214.824 L277.836,214.824 L277.836,218.08 Z M283.16,208.928 C283.16,210.6 284.524,211.92 286.196,211.92 C287.912,211.92 289.232,210.6 289.232,208.928 C289.232,207.212 287.912,205.848 286.196,205.848 C284.524,205.848 283.16,207.212 283.16,208.928 Z M302.168,225.912 C302.168,219.796 306.304,214.472 313.08,214.472 C319.856,214.472 323.992,219.796 323.992,225.912 C323.992,232.028 319.856,237.352 313.08,237.352 C306.304,237.352 302.168,232.028 302.168,225.912 Z M305.952,225.912 C305.952,230.18 308.548,234.008 313.08,234.008 C317.612,234.008 320.208,230.18 320.208,225.912 C320.208,221.644 317.612,217.816 313.08,217.816 C308.548,217.816 305.952,221.644 305.952,225.912 Z M349.688,221.556 C349.688,217.288 347.532,214.472 342.912,214.472 C339.744,214.472 336.972,216.364 335.388,218.916 L335.388,214.824 L331.692,214.824 L331.692,237 L335.388,237 L335.388,228.068 C335.388,221.6 338.424,217.816 341.9,217.816 C344.54,217.816 345.992,219.268 345.992,222.348 L345.992,237 L349.688,237 L349.688,221.556 Z" id="A-smart-spice-statio" fill="#1C2024" opacity="0.519078351"></path>
        </g>
    </g>
</svg>