<?xml version="1.0" encoding="UTF-8"?>
<svg width="569px" height="438px" viewBox="0 0 569 438" version="1.1" xmlns="http://www.w3.org/2000/svg" xmlns:xlink="http://www.w3.org/1999/xlink">
    <!-- Generator: Sketch 43.2 (39069) - http://www.bohemiancoding.com/sketch -->
    <title>title</title>
    <desc>Created with Sketch.</desc>
    <defs></defs>
    <g id="Page-2" stroke="none" stroke-width="1" fill="none" fill-rule="evenodd">
        <g id="Group-Copy" transform="translate(12.000000, 19.000000)" fill="#3B4245">
            <path d="M48.2125,27.98 L122.6925,27.98 L44.5375,160.77 L44.5375,174 L162.1375,174 L162.1375,148.52 L81.7775,148.52 L158.9525,15.73 L158.9525,2.5 L48.2125,2.5 L48.2125,27.98 Z M240.2925,71.1 C223.3875,71.1 212.8525,82.615 210.1575,98.05 L270.1825,98.05 C267.9775,84.33 258.6675,71.1 240.2925,71.1 Z M297.1325,108.34 L297.1325,119.365 L209.6675,119.365 C209.6675,137.495 220.2025,153.42 240.2925,153.42 C253.5225,153.42 266.2625,146.07 272.6325,132.595 L294.4375,141.17 C282.4325,164.445 268.4675,175.96 240.2925,175.96 C199.6225,175.96 182.7175,141.66 182.7175,112.26 C182.7175,82.86 199.6225,48.56 240.2925,48.56 C279.7375,48.56 297.1325,80.655 297.1325,108.34 Z M364.9975,48.56 C342.7025,48.56 327.0225,64.485 327.0225,83.595 C327.0225,102.46 339.2725,111.525 353.4825,117.405 C367.9375,123.53 382.8825,126.47 382.8825,137.25 C382.8825,148.52 376.0225,153.42 366.2225,153.42 C352.5025,153.42 343.9275,142.15 339.0275,131.125 L317.4675,142.885 C323.8375,158.32 339.7625,175.96 365.2425,175.96 C391.7025,175.96 408.1175,158.075 408.1175,136.76 C408.1175,114.71 390.2325,107.36 373.5725,100.99 C360.8325,96.09 351.5225,92.17 351.5225,83.35 C351.5225,75.265 357.4025,71.1 363.7725,71.1 C371.6125,71.1 379.2075,74.53 385.3325,82.37 L401.5025,68.16 C393.6625,55.91 379.9425,48.56 364.9975,48.56 Z M421.5925,73.06 L442.1725,73.06 L442.1725,131.86 C442.1725,162.24 459.3225,175.96 482.5975,175.96 C489.4575,175.96 495.8275,174.735 502.4425,171.55 L495.8275,149.99 C491.4175,152.685 488.4775,153.42 484.0675,153.42 C472.7975,153.42 467.6525,147.295 467.6525,133.33 L467.6525,73.06 L499.7475,73.06 L499.7475,50.52 L467.6525,50.52 L467.6525,0.54 L442.1725,16.465 L442.1725,50.52 L421.5925,50.52 L421.5925,73.06 Z" id="Zest"></path>
            <path d="M17.184,271.4 L22.896,271.4 L39.828,319 L33.64,319 L29.356,306.284 L10.724,306.284 L6.44,319 L0.252,319 L17.184,271.4 Z M20.04,279.152 L12.696,300.572 L27.384,300.572 L20.04,279.152 Z M104.224,284.184 C97.9,284.184 92.528,287.992 92.528,294.112 C92.528,300.844 97.832,302.816 103.612,304.04 C109.052,305.196 112.452,306.148 112.452,309.072 C112.452,312.676 109.052,314.376 105.176,314.376 C100.484,314.376 97.22,311.792 95.724,307.576 L90.284,309.616 C92.392,316.144 98.308,319.544 105.176,319.544 C112.248,319.544 118.368,315.6 118.368,308.528 C118.368,302.34 112.452,300.504 106.06,299.212 C100.96,298.192 98.104,296.832 98.104,293.908 C98.104,290.576 101.096,289.352 104.02,289.352 C107.692,289.352 110.14,290.984 112.248,294.792 L116.736,291.596 C114.152,286.904 110.412,284.184 104.224,284.184 Z M165.424,293.432 C165.424,286.904 162.16,284.184 157.944,284.184 C154.34,284.184 151.28,286.496 149.512,289.76 C148.56,286.36 146.316,284.184 142.44,284.184 C138.904,284.184 136.184,286.224 134.416,289.08 L134.416,284.728 L128.704,284.728 L128.704,319 L134.416,319 L134.416,302.884 C134.416,293.296 137.204,289.42 140.468,289.42 C143.12,289.42 144.208,290.916 144.208,294.656 L144.208,319 L149.92,319 L149.92,302.884 C149.92,293.296 152.708,289.42 155.972,289.42 C158.624,289.42 159.712,290.916 159.712,294.656 L159.712,319 L165.424,319 L165.424,293.432 Z M180.996,309.14 C180.996,312.404 183.24,314.376 186.64,314.376 C191.06,314.376 197.588,311.656 197.588,303.904 L197.588,302.816 L190.108,302.816 C184.26,302.816 180.996,305.264 180.996,309.14 Z M203.3,297.376 L203.3,319 L198.676,319 L197.86,314.172 C195.684,317.3 190.856,319.544 185.756,319.544 C180.044,319.544 175.148,316.144 175.148,309.14 C175.148,301.524 181.268,297.92 190.652,297.92 L197.588,297.92 L197.588,296.424 C197.588,291.12 193.848,289.352 189.7,289.352 C185.688,289.352 182.696,291.868 181.608,295.2 L176.576,293.84 C178.14,287.856 183.444,284.184 189.7,284.184 C197.724,284.184 203.3,287.924 203.3,297.376 Z M247.772,295.608 C247.364,288.264 243.284,284.184 236.484,284.184 C230.772,284.184 226.488,286.904 223.836,291.052 L223.836,284.728 L218.124,284.728 L218.124,319 L223.836,319 L223.836,306.624 C223.836,294.996 229.48,289.352 235.464,289.352 C239.544,289.352 241.584,291.664 242.06,295.608 L247.772,295.608 Z M256.408,289.896 L265.52,289.896 L265.52,307.644 C265.52,315.6 269.668,319.544 277.148,319.544 C281.432,319.544 284.56,318.252 287.688,315.124 L285.58,310.296 C282.588,313.424 280.14,314.376 277.148,314.376 C273.34,314.376 271.232,312.2 271.232,307.44 L271.232,289.896 L287.96,289.896 L287.96,284.728 L271.232,284.728 L271.232,270.856 L265.52,274.46 L265.52,284.728 L256.408,284.728 L256.408,289.896 Z M357.184,284.184 C350.86,284.184 345.488,287.992 345.488,294.112 C345.488,300.844 350.792,302.816 356.572,304.04 C362.012,305.196 365.412,306.148 365.412,309.072 C365.412,312.676 362.012,314.376 358.136,314.376 C353.444,314.376 350.18,311.792 348.684,307.576 L343.244,309.616 C345.352,316.144 351.268,319.544 358.136,319.544 C365.208,319.544 371.328,315.6 371.328,308.528 C371.328,302.34 365.412,300.504 359.02,299.212 C353.92,298.192 351.064,296.832 351.064,293.908 C351.064,290.576 354.056,289.352 356.98,289.352 C360.652,289.352 363.1,290.984 365.208,294.792 L369.696,291.596 C367.112,286.904 363.372,284.184 357.184,284.184 Z M417.364,301.864 C417.364,312.336 411.72,319.544 401.656,319.544 C396.896,319.544 393.088,317.232 391.184,314.648 L391.184,332.872 L385.472,332.872 L385.472,284.728 L391.184,284.728 L391.184,289.284 C393.088,286.632 396.964,284.184 401.656,284.184 C411.72,284.184 417.364,291.392 417.364,301.864 Z M411.516,301.864 C411.516,294.52 407.64,289.352 401.112,289.352 C394.584,289.352 390.708,294.52 390.708,301.864 C390.708,309.208 394.584,314.376 401.112,314.376 C407.64,314.376 411.516,309.208 411.516,301.864 Z M429.332,289.76 L439.804,289.76 L439.804,313.968 L427.972,313.968 L427.972,319 L458.164,319 L458.164,313.968 L445.516,313.968 L445.516,284.728 L429.332,284.728 L429.332,289.76 Z M437.56,275.616 C437.56,278.2 439.668,280.24 442.252,280.24 C444.904,280.24 446.944,278.2 446.944,275.616 C446.944,272.964 444.904,270.856 442.252,270.856 C439.668,270.856 437.56,272.964 437.56,275.616 Z M494.68,308.052 C492.912,312.2 489.852,314.376 485.16,314.376 C478.36,314.376 474.62,308.936 474.62,301.864 C474.62,294.792 478.36,289.352 485.16,289.352 C489.852,289.352 492.912,291.528 494.68,295.676 L499.644,293.636 C496.856,287.244 492.232,284.184 485.16,284.184 C474.688,284.184 468.772,292.548 468.772,301.864 C468.772,311.18 474.688,319.544 485.16,319.544 C492.232,319.544 496.856,316.484 499.644,310.092 L494.68,308.052 Z M542.688,300.708 L542.688,303.088 L515.896,303.088 C516.236,309.888 520.384,314.376 526.436,314.376 C531.604,314.376 535.14,311.86 537.452,307.576 L542.008,309.956 C538.268,317.164 532.828,319.544 526.436,319.544 C516.44,319.544 510.048,311.86 510.048,301.864 C510.048,292.208 516.168,284.184 526.436,284.184 C537.044,284.184 542.688,291.732 542.688,300.708 Z M526.436,289.352 C520.928,289.352 517.46,292.752 516.304,297.92 L536.636,297.92 C535.616,292.48 532.012,289.352 526.436,289.352 Z M146.384,366.184 C140.06,366.184 134.688,369.992 134.688,376.112 C134.688,382.844 139.992,384.816 145.772,386.04 C151.212,387.196 154.612,388.148 154.612,391.072 C154.612,394.676 151.212,396.376 147.336,396.376 C142.644,396.376 139.38,393.792 137.884,389.576 L132.444,391.616 C134.552,398.144 140.468,401.544 147.336,401.544 C154.408,401.544 160.528,397.6 160.528,390.528 C160.528,384.34 154.612,382.504 148.22,381.212 C143.12,380.192 140.264,378.832 140.264,375.908 C140.264,372.576 143.256,371.352 146.18,371.352 C149.852,371.352 152.3,372.984 154.408,376.792 L158.896,373.596 C156.312,368.904 152.572,366.184 146.384,366.184 Z M172.088,371.896 L181.2,371.896 L181.2,389.644 C181.2,397.6 185.348,401.544 192.828,401.544 C197.112,401.544 200.24,400.252 203.368,397.124 L201.26,392.296 C198.268,395.424 195.82,396.376 192.828,396.376 C189.02,396.376 186.912,394.2 186.912,389.44 L186.912,371.896 L203.64,371.896 L203.64,366.728 L186.912,366.728 L186.912,352.856 L181.2,356.46 L181.2,366.728 L172.088,366.728 L172.088,371.896 Z M223.156,391.14 C223.156,394.404 225.4,396.376 228.8,396.376 C233.22,396.376 239.748,393.656 239.748,385.904 L239.748,384.816 L232.268,384.816 C226.42,384.816 223.156,387.264 223.156,391.14 Z M245.46,379.376 L245.46,401 L240.836,401 L240.02,396.172 C237.844,399.3 233.016,401.544 227.916,401.544 C222.204,401.544 217.308,398.144 217.308,391.14 C217.308,383.524 223.428,379.92 232.812,379.92 L239.748,379.92 L239.748,378.424 C239.748,373.12 236.008,371.352 231.86,371.352 C227.848,371.352 224.856,373.868 223.768,377.2 L218.736,375.84 C220.3,369.856 225.604,366.184 231.86,366.184 C239.884,366.184 245.46,369.924 245.46,379.376 Z M256.408,371.896 L265.52,371.896 L265.52,389.644 C265.52,397.6 269.668,401.544 277.148,401.544 C281.432,401.544 284.56,400.252 287.688,397.124 L285.58,392.296 C282.588,395.424 280.14,396.376 277.148,396.376 C273.34,396.376 271.232,394.2 271.232,389.44 L271.232,371.896 L287.96,371.896 L287.96,366.728 L271.232,366.728 L271.232,352.856 L265.52,356.46 L265.52,366.728 L256.408,366.728 L256.408,371.896 Z M302.852,371.76 L313.324,371.76 L313.324,395.968 L301.492,395.968 L301.492,401 L331.684,401 L331.684,395.968 L319.036,395.968 L319.036,366.728 L302.852,366.728 L302.852,371.76 Z M311.08,357.616 C311.08,360.2 313.188,362.24 315.772,362.24 C318.424,362.24 320.464,360.2 320.464,357.616 C320.464,354.964 318.424,352.856 315.772,352.856 C313.188,352.856 311.08,354.964 311.08,357.616 Z M340.456,383.864 C340.456,374.412 346.848,366.184 357.32,366.184 C367.792,366.184 374.184,374.412 374.184,383.864 C374.184,393.316 367.792,401.544 357.32,401.544 C346.848,401.544 340.456,393.316 340.456,383.864 Z M346.304,383.864 C346.304,390.46 350.316,396.376 357.32,396.376 C364.324,396.376 368.336,390.46 368.336,383.864 C368.336,377.268 364.324,371.352 357.32,371.352 C350.316,371.352 346.304,377.268 346.304,383.864 Z M413.896,377.132 C413.896,370.536 410.564,366.184 403.424,366.184 C398.528,366.184 394.244,369.108 391.796,373.052 L391.796,366.728 L386.084,366.728 L386.084,401 L391.796,401 L391.796,387.196 C391.796,377.2 396.488,371.352 401.86,371.352 C405.94,371.352 408.184,373.596 408.184,378.356 L408.184,401 L413.896,401 L413.896,377.132 Z" id="A-smart-spice-statio"></path>
        </g>
    </g>
</svg>