<?xml version="1.0" encoding="utf-8"?>
<!-- Generator: Adobe Illustrator 21.0.0, SVG Export Plug-In . SVG Version: 6.00 Build 0)  -->
<svg version="1.1" id="Layer_1" xmlns="http://www.w3.org/2000/svg" xmlns:xlink="http://www.w3.org/1999/xlink" x="0px" y="0px"
	 viewBox="0 0 512 512" style="enable-background:new 0 0 512 512;" xml:space="preserve">
<style type="text/css">
	.st0{display:none;opacity:0.62;fill:#7DC156;}
	.st1{opacity:0.62;fill:#7DC156;}
	.st2{opacity:0.7;fill:#C9631F;}
	.st3{display:none;}
	.st4{display:inline;}
	.st5{fill:#FFFFFF;}
</style>
<polygon class="st0" points="393,120 425,154 469,120 489,125 498,79 457,72 "/>
<path class="st1" d="M484.8,114.9l5.5-26.8c-20.1-10.7-45.1-7.3-61.6,9.2l-24.9,24.9l22.2,22.2l18.8-18.8
	C455.6,115,470.9,111.2,484.8,114.9z"/>
<g>
	<path class="st2" d="M440.1,159.4c1.1,1.3,2.2,2.5,3.3,3.8C442.3,161.9,441.2,160.6,440.1,159.4z"/>
	<path class="st2" d="M444,163.9c1.1,1.3,2.1,2.5,3.1,3.8C446.1,166.4,445.1,165.2,444,163.9z"/>
	<path class="st2" d="M465.3,209.2c-1.2-15.4-8.1-28.6-18.2-41.5l-64.3-64.9c1,0.9,2,1.7,3,2.6c-19.6-17-39.8-29.1-63.5-26.9
		c-27.7,2.6-54.7,24.3-84.7,68.3c-11.2,16.4-20.3,31.4-29,45.9c-15.9,26.3-29.6,48.9-51.3,72.5c-29.3,31.8-65.1,59-93.8,80.9
		C26,374.5,1.3,393.4,0.1,412.3c-0.4,6.5,1.9,12.6,6.9,17.6c14.7,14.7,41.1,20.5,71.9,20.5c33,0,70.9-6.6,104.7-15.8
		c88-23.9,168.7-67.8,221.5-120.6c21.9-21.9,37.5-40.9,47.3-58l0,0l0,0C462.3,238.8,466.4,223.5,465.3,209.2z"/>
	<path class="st2" d="M386.1,105.7c1,0.9,2,1.7,3,2.6C388.1,107.4,387.1,106.5,386.1,105.7z"/>
</g>
<g class="st3">
	<g class="st4">
		<path class="st5" d="M235.5,367.8c-2.1-5.2-8-7.8-13.2-5.7c-27.1,10.7-55.5,19-81.9,24.1c-5.5,1.1-9.2,6.4-8.1,11.9
			c0.9,4.9,5.2,8.3,10,8.3c0.6,0,1.3-0.1,1.9-0.2c27.7-5.3,57.3-14,85.6-25.1C235,379,237.5,373.1,235.5,367.8z"/>
	</g>
</g>
<g class="st3">
	<g class="st4">
		<path class="st5" d="M110,401c-0.3-5.6-5.1-9.9-10.7-9.6c-6.2,0.3-12.1,0.4-17.7,0.2c-5.6-0.2-10.3,4.2-10.5,9.9
			c-0.2,5.6,4.2,10.3,9.9,10.5c2.1,0.1,4.3,0.1,6.4,0.1c4.2,0,8.5-0.1,13-0.4C106,411.4,110.3,406.6,110,401z"/>
	</g>
</g>
<path class="st0" d="M447.1,167.7c-2.2-2.8-4.5-5.6-7-8.3l19.2-19.2c7.3-7.3,18.6-8.2,27-2.3c2.8,2,6.4,2.4,9.6,1.1
	c3.2-1.3,5.5-4.1,6.2-7.4l9.6-46.2c0.8-4-0.8-8.1-4.1-10.4c-29-20.4-68.2-17-93.3,8.1l-25.3,25.3c-2.1-1.9-4.2-3.7-6.3-5.5
	L447.1,167.7z M428.8,97.4c16.5-16.5,41.5-19.9,61.6-9.2l-5.5,26.8c-13.9-3.7-29.2,0.1-39.9,10.8l-18.8,18.8l-22.2-22.2L428.8,97.4z
	"/>
</svg>
