<?xml version="1.0" encoding="utf-8"?>
<!-- Generator: Adobe Illustrator 21.0.0, SVG Export Plug-In . SVG Version: 6.00 Build 0)  -->
<svg version="1.1" xmlns="http://www.w3.org/2000/svg" xmlns:xlink="http://www.w3.org/1999/xlink" x="0px" y="0px"
	 viewBox="0 0 53.2 43.8" style="enable-background:new 0 0 53.2 43.8;" xml:space="preserve">
<style type="text/css">
	.st0{display:none;}
	.st1{display:inline;}
	.st2{fill:none;stroke:#FFFFFF;stroke-miterlimit:10;}
</style>
<g id="Layer_1" class="st0">
</g>
<g id="Layer_2">
	<g>
		<g>
			<path class="st2" d="M43.7,23.5c0,0.6-0.6,1.8-1.2,2.3c-0.6,0.5-1.3,0.1-1.9-0.7c-0.6-0.8-0.6-2.7-1.3-3.6
				c-0.7-0.9-0.6-0.8-1.8-1.4c-1.2-0.6-12.9-4.4-13.3-4.7c-0.4-0.4,0.6-2,0.6-2s5.2,0.7,9.8,2.1s5.3,1.3,6.3,1.1
				c1-0.1,3.1-2.1,3.9-2.3c0.8-0.1,1.6,0,1.9,0.6c0.3,0.6-0.5,2.1-0.5,2.1"/>
			<path class="st2" d="M43.1,17.3c0,0,0.7-0.9,2-0.5c1.3,0.4,3.1,1.9,3.4,3.2c0.2,1.3-0.5,2.6-1.8,3s-3.2,0.6-4.7-0.3
				c-1.5-0.9,0.3-2.1,0.5-2.7C42.6,19.3,42.5,18.1,43.1,17.3z"/>
			<path class="st2" d="M41.5,17.4c0,0-1.4,1.4-1.3,3.4"/>
			<path class="st2" d="M26.2,15.2c0,0,8.5,2.2,11.3,3.9"/>
		</g>
		<g>
			<path class="st2" d="M16.2,6c0.4-0.4,1.7-0.9,2.5-0.8C19.4,5.3,19.6,6,19.4,7s-1.4,2.4-1.6,3.5c-0.2,1.1-0.1,1,0.3,2.3
				s6,12.2,6,12.7s-1.8,1-1.8,1s-3.2-4.2-5.4-8.4s-2.8-4.6-3.7-5.2c-0.8-0.6-3.7-0.7-4.4-1.2c-0.7-0.5-1.1-1.1-0.9-1.8
				s1.9-1.1,1.9-1.1"/>
			<path class="st2" d="M12.2,10.8c0,0-1.1,0.1-1.8-1c-0.6-1.1-0.9-3.6-0.1-4.7s2.2-1.5,3.4-0.9s2.7,1.8,3.1,3.5
				c0.5,1.7-1.7,1.3-2.3,1.6C14,9.7,13.2,10.6,12.2,10.8z"/>
			<path class="st2" d="M13.4,11.8c0,0,2,0,3.3-1.4"/>
			<path class="st2" d="M22.6,24.2c0,0-4.5-7.6-5.2-10.7"/>
		</g>
		<g>
			<path class="st2" d="M14.2,32.7c-0.4-0.4-0.9-1.7-0.8-2.5c0.1-0.8,0.8-0.9,1.8-0.8s2.4,1.4,3.5,1.6c1.1,0.2,1,0.1,2.3-0.3
				c1.3-0.4,12.2-6,12.7-6s1,1.8,1,1.8s-4.2,3.2-8.4,5.4s-4.6,2.8-5.2,3.7c-0.6,0.8-0.7,3.7-1.2,4.4s-1.1,1.1-1.8,0.9
				S16.9,39,16.9,39"/>
			<path class="st2" d="M19.1,36.6c0,0,0.1,1.1-1,1.8c-1.1,0.6-3.6,0.9-4.7,0.1c-1.1-0.8-1.5-2.2-0.9-3.4c0.7-1.2,1.8-2.7,3.5-3.1
				c1.7-0.5,1.3,1.7,1.6,2.3S18.8,35.7,19.1,36.6z"/>
			<path class="st2" d="M20.1,35.5c0,0,0-2-1.4-3.3"/>
			<path class="st2" d="M32.5,26.2c0,0-7.6,4.5-10.7,5.2"/>
		</g>
	</g>
</g>
</svg>
