<?xml version="1.0" encoding="utf-8"?>
<!-- Generator: Adobe Illustrator 21.0.0, SVG Export Plug-In . SVG Version: 6.00 Build 0)  -->
<svg version="1.1" xmlns="http://www.w3.org/2000/svg" xmlns:xlink="http://www.w3.org/1999/xlink" x="0px" y="0px"
	 viewBox="0 0 53.2 43.8" style="enable-background:new 0 0 53.2 43.8;" xml:space="preserve">
<style type="text/css">
	.st0{display:none;}
	.st1{display:inline;}
	.st2{fill:none;stroke:#FFFFFF;stroke-miterlimit:10;}
</style>
<g id="Layer_1" class="st0">
</g>
<g id="Layer_2">
	<g>
		<path class="st2" d="M7.6,41.7c0,0,12.1-23.2,33-30.1"/>
		<path class="st2" d="M52.2,6.2c0,0-2,7.1-9.2,10.1S29.7,17,29.7,17s1.1-5.4,7.8-8.9S52.2,6.2,52.2,6.2z"/>
		<path class="st2" d="M16.8,1.1c0,0,5.4,3.8,5.6,10.5c0.2,6.7-5.6,12.9-5.6,12.9s-5.1-4.8-5.1-10.9S16.8,1.1,16.8,1.1z"/>
		<line class="st2" x1="17" y1="10.5" x2="17" y2="28.4"/>
		<path class="st2" d="M42.5,37.4c0,0-3.3,3.9-12.8,2.8s-12-7.1-12-7.1s3.6-3.5,12.4-2.5C38.9,31.6,42.5,37.4,42.5,37.4z"/>
		<path class="st2" d="M33.1,35.4c0,0-13.4-2.1-19.7-2.6"/>
	</g>
</g>
</svg>
