<?xml version="1.0" encoding="utf-8"?>
<!-- Generator: Adobe Illustrator 21.0.0, SVG Export Plug-In . SVG Version: 6.00 Build 0)  -->
<svg version="1.1" xmlns="http://www.w3.org/2000/svg" xmlns:xlink="http://www.w3.org/1999/xlink" x="0px" y="0px"
	 viewBox="0 0 53.2 43.8" style="enable-background:new 0 0 53.2 43.8;" xml:space="preserve">
<style type="text/css">
	.st0{display:none;}
	.st1{display:inline;}
	.st2{fill:none;stroke:#FFFFFF;stroke-miterlimit:10;}
</style>
<g id="Layer_1" class="st0">
</g>
<g id="Layer_2">
	<g>
		<g>
			<line class="st2" x1="14.8" y1="23.7" x2="12.8" y2="23.5"/>
			<line class="st2" x1="15.2" y1="25.4" x2="15.4" y2="27.7"/>
			<line class="st2" x1="17.5" y1="25" x2="20.2" y2="24.2"/>
			<line class="st2" x1="18.7" y1="26.1" x2="18.8" y2="29.3"/>
			<line class="st2" x1="17.2" y1="23.6" x2="18" y2="22"/>
			<path class="st2" d="M17.7,21.8c0,0-3.3-1.6-4.9,1.7s0.7,4.9,2.1,5.5c1.3,0.6,4,1.8,5.5-1.7C21.8,23.9,17.7,21.8,17.7,21.8z"/>
		</g>
		<g>
			<line class="st2" x1="10.1" y1="30.7" x2="10.9" y2="28.9"/>
			<line class="st2" x1="8.3" y1="30.6" x2="6" y2="30.1"/>
			<line class="st2" x1="8" y1="32.9" x2="7.8" y2="35.8"/>
			<line class="st2" x1="6.5" y1="33.7" x2="3.5" y2="32.8"/>
			<line class="st2" x1="9.4" y1="33.1" x2="10.7" y2="34.4"/>
			<path class="st2" d="M10.9,34.1c0,0,2.5-2.6,0-5.2S6,28.1,5,29.2c-1,1.1-3,3.2-0.1,5.7S10.9,34.1,10.9,34.1z"/>
		</g>
		<g>
			<line class="st2" x1="17.6" y1="15.2" x2="15.7" y2="15.8"/>
			<line class="st2" x1="18.7" y1="16.6" x2="19.9" y2="18.5"/>
			<line class="st2" x1="20.6" y1="15.2" x2="22.8" y2="13.3"/>
			<line class="st2" x1="22.2" y1="15.7" x2="23.6" y2="18.5"/>
			<line class="st2" x1="19.8" y1="14.1" x2="19.8" y2="12.2"/>
			<path class="st2" d="M19.4,12.2c0,0-3.6,0-3.7,3.6s2.8,4.1,4.3,4.1c1.5,0,4.4-0.1,4.2-3.9S19.4,12.2,19.4,12.2z"/>
		</g>
		<g>
			<line class="st2" x1="24.5" y1="33.4" x2="23.8" y2="35.3"/>
			<line class="st2" x1="26.3" y1="33.5" x2="28.6" y2="33.7"/>
			<line class="st2" x1="26.5" y1="31.1" x2="26.4" y2="28.2"/>
			<line class="st2" x1="27.8" y1="30.2" x2="31" y2="30.9"/>
			<line class="st2" x1="25.1" y1="31" x2="23.6" y2="29.9"/>
			<path class="st2" d="M23.4,30.1c0,0-2.3,2.8,0.4,5.2c2.7,2.4,4.9,0.5,5.9-0.7c0.9-1.1,2.7-3.4-0.3-5.7S23.4,30.1,23.4,30.1z"/>
		</g>
		<g>
			<line class="st2" x1="27" y1="23.1" x2="26.2" y2="25.1"/>
			<line class="st2" x1="28.9" y1="23.2" x2="31.4" y2="23.5"/>
			<line class="st2" x1="29.1" y1="20.6" x2="29" y2="17.5"/>
			<line class="st2" x1="30.5" y1="19.6" x2="34" y2="20.4"/>
			<line class="st2" x1="27.6" y1="20.5" x2="26" y2="19.3"/>
			<path class="st2" d="M25.8,19.5c0,0-2.5,3,0.5,5.6s5.3,0.5,6.4-0.7c1-1.2,2.9-3.7-0.3-6.1S25.8,19.5,25.8,19.5z"/>
		</g>
		<g>
			<line class="st2" x1="41.8" y1="15.9" x2="39.7" y2="17.2"/>
			<line class="st2" x1="43.5" y1="17.3" x2="45.5" y2="19.3"/>
			<line class="st2" x1="45.5" y1="15.1" x2="47.5" y2="12.3"/>
			<line class="st2" x1="47.5" y1="15.2" x2="50" y2="18.3"/>
			<line class="st2" x1="44.1" y1="14" x2="43.7" y2="11.8"/>
			<path class="st2" d="M43.2,11.8c0,0-4.4,1-3.5,5.4c0.9,4.4,4.5,4.2,6.3,3.8s5.3-1.3,4-5.8C48.8,10.7,43.2,11.8,43.2,11.8z"/>
		</g>
	</g>
</g>
</svg>
