<?xml version="1.0" encoding="utf-8"?>
<!-- Generator: Adobe Illustrator 21.0.0, SVG Export Plug-In . SVG Version: 6.00 Build 0)  -->
<svg version="1.1" xmlns="http://www.w3.org/2000/svg" xmlns:xlink="http://www.w3.org/1999/xlink" x="0px" y="0px"
	 viewBox="0 0 53.2 43.8" style="enable-background:new 0 0 53.2 43.8;" xml:space="preserve">
<style type="text/css">
	.st0{display:none;}
	.st1{display:inline;}
	.st2{fill:none;stroke:#FFFFFF;stroke-miterlimit:10;}
</style>
<g id="Layer_1" class="st0">
</g>
<g id="Layer_2">
	<g>
		<path class="st2" d="M47.4,5.5c0,0-3.4-1.6-6.3-0.9s-3,1.7-5.6,2.5C33,7.8,29.1,6,23,10.9s-9.3,9.7-11.1,13.3s-8,7-8.9,9.9
			s-0.7,6.5,0.6,6.4c1.3-0.2,1.8-2.6,4.5-3.1s7.4-0.6,9.5-2.5c2.1-1.9,7.4-8.9,11.1-10.2s20.8-7.5,21.6-11.3
			C51.7,6.3,47.4,5.5,47.4,5.5z"/>
		<path class="st2" d="M39,9.2c0,0-1.3-1.3-1.3-3.1"/>
		<path class="st2" d="M36.9,16.5c0,0,0.7,2.3,2.2,4.1"/>
		<path class="st2" d="M46,13.3c0,0,0.4,1.8,1.5,2.9"/>
		<path class="st2" d="M32.4,13.8c0,0-2.6-3.7-2-6.4"/>
		<path class="st2" d="M26.6,12c0,0-1-1.9-0.8-3.1"/>
		<path class="st2" d="M23.7,19c0,0,1.3,4.2,4,6.1"/>
		<path class="st2" d="M17.3,21.6c0,0-1.4-1.2-1.8-3.2"/>
		<path class="st2" d="M18.2,28.2c0,0,0.9,1.7,2.4,3.4"/>
		<path class="st2" d="M15.2,28.4c0,0-4-2.9-3.3-4.2"/>
		<path class="st2" d="M10.5,30.9c0,0-2.1-1.5-1.8-2.9"/>
		<path class="st2" d="M4.3,37.4c0,0,0.7,1,2,0.8"/>
		<path class="st2" d="M15.7,32.9c0,0,0.3,1.3,1.9,1.9"/>
	</g>
</g>
</svg>
